AnekGurmukhi-CondensedThin.ufo
<glyph name="k" format="2">
  <advance width="549"/>
  <unicode hex="006B"/>
  <anchor x="295" y="0" name="bottom"/>
  <anchor x="275" y="1334" name="top"/>
  <outline>
    <contour>
      <point x="480" y="0" type="line"/>
      <point x="519" y="0" type="line"/>
      <point x="228" y="545" type="line"/>
      <point x="228" y="522" type="line"/>
      <point x="502" y="990" type="line"/>
      <point x="463" y="990" type="line"/>
      <point x="203" y="548" type="line"/>
      <point x="132" y="548" type="line"/>
      <point x="132" y="515" type="line"/>
      <point x="203" y="515" type="line"/>
    </contour>
    <contour>
      <point x="110" y="0" type="line"/>
      <point x="147" y="0" type="line"/>
      <point x="147" y="1334" type="line"/>
      <point x="110" y="1334" type="line"/>
    </contour>
  </outline>
</glyph>
<glyph name="braceleft" format="2">
  <advance width="450"/>
  <unicode hex="007B"/>
  <outline>
    <contour>
      <point x="418" y="1336" type="line"/>
      <point x="389" y="1347"/>
      <point x="361" y="1354"/>
      <point x="324" y="1354" type="curve" smooth="yes"/>
      <point x="223" y="1354"/>
      <point x="175" y="1290"/>
      <point x="175" y="1163" type="curve" smooth="yes"/>
      <point x="175" y="1038"/>
      <point x="188" y="872"/>
      <point x="188" y="773" type="curve" smooth="yes"/>
      <point x="188" y="651"/>
      <point x="159" y="592"/>
      <point x="56" y="581" type="curve"/>
      <point x="56" y="535" type="line"/>
      <point x="159" y="523"/>
      <point x="188" y="466"/>
      <point x="188" y="344" type="curve" smooth="yes"/>
      <point x="188" y="247"/>
      <point x="175" y="77"/>
      <point x="175" y="-52" type="curve" smooth="yes"/>
      <point x="175" y="-178"/>
      <point x="225" y="-243"/>
      <point x="324" y="-243" type="curve" smooth="yes"/>
      <point x="361" y="-243"/>
      <point x="389" y="-236"/>
      <point x="418" y="-224" type="curve"/>
      <point x="418" y="-190" type="line"/>
      <point x="396" y="-201"/>
      <point x="365" y="-210"/>
      <point x="326" y="-210" type="curve" smooth="yes"/>
      <point x="249" y="-210"/>
      <point x="212" y="-160"/>
      <point x="212" y="-50" type="curve" smooth="yes"/>
      <point x="212" y="64"/>
      <point x="225" y="234"/>
      <point x="225" y="346" type="curve" smooth="yes"/>
      <point x="225" y="470"/>
      <point x="187" y="540"/>
      <point x="84" y="559" type="curve"/>
      <point x="87" y="553" type="line"/>
      <point x="87" y="559" type="line"/>
      <point x="183" y="576"/>
      <point x="225" y="644"/>
      <point x="225" y="770" type="curve" smooth="yes"/>
      <point x="225" y="881"/>
      <point x="212" y="1049"/>
      <point x="212" y="1161" type="curve" smooth="yes"/>
      <point x="212" y="1271"/>
      <point x="249" y="1321"/>
      <point x="326" y="1321" type="curve" smooth="yes"/>
      <point x="365" y="1321"/>
      <point x="396" y="1312"/>
      <point x="418" y="1301" type="curve"/>
    </contour>
  </outline>
</glyph>
<glyph name="Danda.gm" format="2">
  <advance width="364"/>
  <unicode hex="0964"/>
  <outline>
    <contour>
      <point x="164" y="0" type="line"/>
      <point x="200" y="0" type="line"/>
      <point x="200" y="1213" type="line"/>
      <point x="164" y="1213" type="line"/>
    </contour>
  </outline>
</glyph>
<glyph name="Doubledanda.gm" format="2">
  <advance width="660"/>
  <unicode hex="0965"/>
  <outline>
    <contour>
      <point x="460" y="0" type="line"/>
      <point x="496" y="0" type="line"/>
      <point x="496" y="1213" type="line"/>
      <point x="460" y="1213" type="line"/>
    </contour>
    <contour>
      <point x="164" y="0" type="line"/>
      <point x="200" y="0" type="line"/>
      <point x="200" y="1213" type="line"/>
      <point x="164" y="1213" type="line"/>
    </contour>
  </outline>
</glyph>
<glyph name="AddakBindi.gm" format="2">
  <unicode hex="0A01"/>
  <anchor x="404" y="1234" name="_top"/>
  <outline>
    <contour>
      <point x="341" y="1491" type="curve" smooth="yes"/>
      <point x="367" y="1491"/>
      <point x="378" y="1510"/>
      <point x="378" y="1550" type="curve" smooth="yes"/>
      <point x="378" y="1566" type="line" smooth="yes"/>
      <point x="378" y="1606"/>
      <point x="367" y="1624"/>
      <point x="341" y="1624" type="curve" smooth="yes"/>
      <point x="315" y="1624"/>
      <point x="304" y="1606"/>
      <point x="304" y="1566" type="curve" smooth="yes"/>
      <point x="304" y="1550" type="line" smooth="yes"/>
      <point x="304" y="1510"/>
      <point x="315" y="1491"/>
    </contour>
    <component base="Addak.gm"/>
  </outline>
</glyph>
<glyph name="Bindi.gm" format="2">
  <unicode hex="0A02"/>
  <anchor x="400" y="1200" name="_top"/>
  <outline>
    <contour>
      <point x="337" y="1457" type="curve" smooth="yes"/>
      <point x="363" y="1457"/>
      <point x="374" y="1476"/>
      <point x="374" y="1516" type="curve" smooth="yes"/>
      <point x="374" y="1532" type="line" smooth="yes"/>
      <point x="374" y="1572"/>
      <point x="363" y="1590"/>
      <point x="337" y="1590" type="curve" smooth="yes"/>
      <point x="311" y="1590"/>
      <point x="300" y="1572"/>
      <point x="300" y="1532" type="curve" smooth="yes"/>
      <point x="300" y="1516" type="line" smooth="yes"/>
      <point x="300" y="1476"/>
      <point x="311" y="1457"/>
    </contour>
  </outline>
</glyph>
<glyph name="Visarga.gm" format="2">
  <advance width="315"/>
  <unicode hex="0A03"/>
  <outline>
    <contour>
      <point x="157" y="770" type="curve" smooth="yes"/>
      <point x="183" y="770"/>
      <point x="194" y="789"/>
      <point x="194" y="829" type="curve" smooth="yes"/>
      <point x="194" y="845" type="line" smooth="yes"/>
      <point x="194" y="885"/>
      <point x="183" y="903"/>
      <point x="157" y="903" type="curve" smooth="yes"/>
      <point x="131" y="903"/>
      <point x="120" y="885"/>
      <point x="120" y="845" type="curve" smooth="yes"/>
      <point x="120" y="829" type="line" smooth="yes"/>
      <point x="120" y="789"/>
      <point x="131" y="770"/>
    </contour>
    <contour>
      <point x="158" y="196" type="curve" smooth="yes"/>
      <point x="184" y="196"/>
      <point x="195" y="215"/>
      <point x="195" y="255" type="curve" smooth="yes"/>
      <point x="195" y="271" type="line" smooth="yes"/>
      <point x="195" y="311"/>
      <point x="184" y="329"/>
      <point x="158" y="329" type="curve" smooth="yes"/>
      <point x="132" y="329"/>
      <point x="121" y="311"/>
      <point x="121" y="271" type="curve" smooth="yes"/>
      <point x="121" y="255" type="line" smooth="yes"/>
      <point x="121" y="215"/>
      <point x="132" y="196"/>
    </contour>
  </outline>
</glyph>
<glyph name="VowelA.gm" format="2">
  <advance width="947"/>
  <unicode hex="0A05"/>
  <anchor x="847" y="1200" name="top"/>
  <outline>
    <contour>
      <point x="436" y="164" type="curve"/>
      <point x="474" y="164" type="line"/>
      <point x="490" y="295"/>
      <point x="503" y="471"/>
      <point x="503" y="657" type="curve" smooth="yes"/>
      <point x="503" y="767"/>
      <point x="499" y="911"/>
      <point x="493" y="1029" type="curve"/>
      <point x="463" y="1029" type="line"/>
      <point x="162" y="696" type="line"/>
      <point x="162" y="645" type="line"/>
      <point x="475" y="989" type="line"/>
      <point x="458" y="996" type="line"/>
      <point x="463" y="886"/>
      <point x="466" y="766"/>
      <point x="466" y="687" type="curve" smooth="yes"/>
      <point x="466" y="495"/>
      <point x="455" y="301"/>
    </contour>
    <contour>
      <point x="120" y="334" type="curve"/>
      <point x="158" y="334" type="line"/>
      <point x="174" y="465"/>
      <point x="187" y="641"/>
      <point x="187" y="827" type="curve" smooth="yes"/>
      <point x="187" y="937"/>
      <point x="183" y="1081"/>
      <point x="176" y="1213" type="curve"/>
      <point x="6" y="1213" type="line"/>
      <point x="6" y="1179" type="line"/>
      <point x="141" y="1179" type="line"/>
      <point x="147" y="1056"/>
      <point x="150" y="936"/>
      <point x="150" y="857" type="curve" smooth="yes"/>
      <point x="150" y="665"/>
      <point x="139" y="471"/>
    </contour>
    <contour>
      <point x="479" y="452" type="line"/>
      <point x="786" y="795" type="line"/>
      <point x="786" y="847" type="line"/>
      <point x="479" y="504" type="line"/>
    </contour>
    <component base="_cap.shiro_left"/>
    <component base="_danda" xOffset="580"/>
  </outline>
</glyph>
<glyph name="VowelEe.gm" format="2">
  <advance width="637"/>
  <unicode hex="0A0F"/>
  <anchor x="867" y="1353" name="top1"/>
  <outline>
    <contour>
      <point x="357" y="-9" type="curve" smooth="yes"/>
      <point x="456" y="-9"/>
      <point x="517" y="26"/>
      <point x="548" y="64" type="curve"/>
      <point x="553" y="116" type="line"/>
      <point x="516" y="68"/>
      <point x="451" y="26"/>
      <point x="357" y="26" type="curve" smooth="yes"/>
      <point x="237" y="26"/>
      <point x="165" y="111"/>
      <point x="165" y="254" type="curve"/>
      <point x="165" y="509" type="line"/>
      <point x="141" y="469" type="line"/>
      <point x="255" y="541"/>
      <point x="397" y="611"/>
      <point x="515" y="667" type="curve"/>
      <point x="515" y="1197" type="line"/>
      <point x="478" y="1197" type="line"/>
      <point x="478" y="688" type="line"/>
      <point x="418" y="659"/>
      <point x="358" y="630"/>
      <point x="299" y="599" type="curve"/>
      <point x="293" y="596" type="line"/>
      <point x="237" y="567"/>
      <point x="182" y="536"/>
      <point x="128" y="502" type="curve"/>
      <point x="128" y="254" type="line"/>
      <point x="128" y="89"/>
      <point x="215" y="-9"/>
    </contour>
    <contour>
      <point x="290" y="585" type="line"/>
      <point x="292" y="586" type="line"/>
      <point x="319" y="602" type="line"/>
      <point x="213" y="640"/>
      <point x="165" y="719"/>
      <point x="165" y="854" type="curve" smooth="yes"/>
      <point x="165" y="1197" type="line"/>
      <point x="128" y="1197" type="line"/>
      <point x="128" y="854" type="line" smooth="yes"/>
      <point x="128" y="713"/>
      <point x="178" y="629"/>
      <point x="286" y="587" type="curve"/>
    </contour>
    <contour>
      <point x="17" y="1179" type="line"/>
      <point x="145" y="1179" type="line"/>
      <point x="148" y="1179" type="line"/>
      <point x="495" y="1179" type="line"/>
      <point x="497" y="1179" type="line"/>
      <point x="619" y="1179" type="line"/>
      <point x="619" y="1213" type="line"/>
      <point x="17" y="1213" type="line"/>
    </contour>
    <contour>
      <point x="480" y="1200" type="line"/>
      <point x="515" y="1200" type="line"/>
      <point x="458" y="1553"/>
      <point x="364" y="1646"/>
      <point x="166" y="1646" type="curve" smooth="yes"/>
      <point x="141" y="1646"/>
      <point x="122" y="1644"/>
      <point x="88" y="1640" type="curve"/>
      <point x="85" y="1607" type="line"/>
      <point x="115" y="1611"/>
      <point x="141" y="1613"/>
      <point x="166" y="1613" type="curve" smooth="yes"/>
      <point x="340" y="1613"/>
      <point x="425" y="1530"/>
      <point x="477" y="1218" type="curve" smooth="yes"/>
    </contour>
    <component base="_cap.shiro_left"/>
    <component base="_cap.shiro_right" xOffset="445"/>
  </outline>
</glyph>
<glyph name="VowelOo.gm" format="2">
  <advance width="702"/>
  <unicode hex="0A13"/>
  <outline>
    <contour>
      <point x="377" y="-18" type="curve" smooth="yes"/>
      <point x="518" y="-18"/>
      <point x="582" y="74"/>
      <point x="582" y="245" type="curve" smooth="yes"/>
      <point x="582" y="367" type="line" smooth="yes"/>
      <point x="582" y="533"/>
      <point x="518" y="646"/>
      <point x="336" y="646" type="curve"/>
      <point x="373" y="626" type="line"/>
      <point x="373" y="638" type="line"/>
      <point x="508" y="638"/>
      <point x="588" y="750"/>
      <point x="588" y="928" type="curve" smooth="yes"/>
      <point x="588" y="1192" type="line"/>
      <point x="551" y="1192" type="line"/>
      <point x="551" y="930" type="line" smooth="yes"/>
      <point x="551" y="766"/>
      <point x="486" y="656"/>
      <point x="325" y="656" type="curve" smooth="yes"/>
      <point x="156" y="656" type="line"/>
      <point x="156" y="622" type="line"/>
      <point x="331" y="622" type="line"/>
      <point x="485" y="622"/>
      <point x="545" y="532"/>
      <point x="545" y="369" type="curve" smooth="yes"/>
      <point x="545" y="245" type="line" smooth="yes"/>
      <point x="545" y="96"/>
      <point x="496" y="17"/>
      <point x="375" y="17" type="curve" smooth="yes"/>
      <point x="212" y="17"/>
      <point x="175" y="166"/>
      <point x="175" y="349" type="curve" smooth="yes"/>
      <point x="175" y="1288" type="line" smooth="yes"/>
      <point x="175" y="1519"/>
      <point x="270" y="1639"/>
      <point x="453" y="1639" type="curve" smooth="yes"/>
      <point x="490" y="1639"/>
      <point x="524" y="1635"/>
      <point x="552" y="1626" type="curve"/>
      <point x="546" y="1662" type="line"/>
      <point x="517" y="1670"/>
      <point x="485" y="1674"/>
      <point x="453" y="1674" type="curve" smooth="yes"/>
      <point x="247" y="1674"/>
      <point x="138" y="1541"/>
      <point x="138" y="1288" type="curve"/>
      <point x="138" y="349" type="line" smooth="yes"/>
      <point x="138" y="125"/>
      <point x="194" y="-18"/>
    </contour>
    <contour>
      <point x="29" y="1179" type="line"/>
      <point x="155" y="1179" type="line"/>
      <point x="157" y="1179" type="line"/>
      <point x="568" y="1179" type="line"/>
      <point x="571" y="1179" type="line"/>
      <point x="681" y="1179" type="line"/>
      <point x="681" y="1213" type="line"/>
      <point x="29" y="1213" type="line"/>
    </contour>
    <component base="_cap.shiro_left"/>
    <component base="_cap.shiro_right" xOffset="510"/>
  </outline>
</glyph>
<glyph name="Ka.gm" format="2">
  <advance width="680"/>
  <unicode hex="0A15"/>
  <anchor x="810" y="100" name="bottom"/>
  <anchor x="700" y="100" name="bottom1"/>
  <anchor x="617" y="1200" name="top"/>
  <outline>
    <contour>
      <point x="20" y="1179" type="line"/>
      <point x="657" y="1179" type="line"/>
      <point x="657" y="1213" type="line"/>
      <point x="20" y="1213" type="line"/>
    </contour>
    <contour>
      <point x="536" y="0" type="line"/>
      <point x="573" y="0" type="line"/>
      <point x="564" y="136" type="line" smooth="yes"/>
      <point x="551" y="325"/>
      <point x="530" y="489"/>
      <point x="487" y="626" type="curve"/>
      <point x="485" y="629" type="line"/>
      <point x="463" y="757"/>
      <point x="430" y="940"/>
      <point x="276" y="940" type="curve" smooth="yes"/>
      <point x="152" y="940"/>
      <point x="88" y="848"/>
      <point x="88" y="671" type="curve" smooth="yes"/>
      <point x="88" y="520" type="line" smooth="yes"/>
      <point x="88" y="344"/>
      <point x="152" y="253"/>
      <point x="276" y="253" type="curve" smooth="yes"/>
      <point x="425" y="253"/>
      <point x="458" y="436"/>
      <point x="485" y="569" type="curve"/>
      <point x="487" y="573" type="line"/>
      <point x="543" y="774"/>
      <point x="557" y="955"/>
      <point x="562" y="1041" type="curve" smooth="yes"/>
      <point x="571" y="1202" type="line"/>
      <point x="534" y="1202" type="line"/>
      <point x="525" y="1051" type="line" smooth="yes"/>
      <point x="514" y="872"/>
      <point x="504" y="803"/>
      <point x="466" y="630" type="curve"/>
      <point x="461" y="630" type="line"/>
      <point x="436" y="489"/>
      <point x="405" y="288"/>
      <point x="278" y="288" type="curve" smooth="yes"/>
      <point x="174" y="288"/>
      <point x="125" y="367"/>
      <point x="125" y="520" type="curve" smooth="yes"/>
      <point x="125" y="671" type="line" smooth="yes"/>
      <point x="125" y="825"/>
      <point x="174" y="905"/>
      <point x="278" y="905" type="curve" smooth="yes"/>
      <point x="406" y="905"/>
      <point x="439" y="720"/>
      <point x="462" y="567" type="curve"/>
      <point x="467" y="567" type="line"/>
      <point x="497" y="469"/>
      <point x="517" y="297"/>
      <point x="527" y="138" type="curve" smooth="yes"/>
    </contour>
    <component base="_cap.shiro_left"/>
    <component base="_cap.shiro_right" xOffset="488"/>
  </outline>
</glyph>
<glyph name="Kha.gm" format="2">
  <advance width="718"/>
  <unicode hex="0A16"/>
  <anchor x="818" y="100" name="bottom"/>
  <anchor x="710" y="100" name="bottom1"/>
  <anchor x="618" y="1200" name="top"/>
  <outline>
    <contour>
      <point x="338" y="230" type="curve" smooth="yes"/>
      <point x="432" y="230"/>
      <point x="497" y="270"/>
      <point x="517" y="286" type="curve"/>
      <point x="538" y="335" type="line"/>
      <point x="545" y="335" type="line"/>
      <point x="542" y="351" type="line"/>
      <point x="509" y="307"/>
      <point x="428" y="265"/>
      <point x="339" y="265" type="curve" smooth="yes"/>
      <point x="230" y="265"/>
      <point x="151" y="317"/>
      <point x="114" y="384" type="curve"/>
      <point x="120" y="350" type="line"/>
      <point x="162" y="460"/>
      <point x="186" y="671"/>
      <point x="186" y="937" type="curve" smooth="yes"/>
      <point x="186" y="1024"/>
      <point x="184" y="1116"/>
      <point x="178" y="1213" type="curve"/>
      <point x="28" y="1213" type="line"/>
      <point x="28" y="1179" type="line"/>
      <point x="143" y="1179" type="line"/>
      <point x="148" y="1095"/>
      <point x="149" y="1013"/>
      <point x="149" y="936" type="curve" smooth="yes"/>
      <point x="149" y="686"/>
      <point x="129" y="480"/>
      <point x="84" y="356" type="curve"/>
      <point x="138" y="278"/>
      <point x="222" y="230"/>
    </contour>
    <contour>
      <point x="164" y="730" type="line"/>
      <point x="559" y="730" type="line"/>
      <point x="559" y="765" type="line"/>
      <point x="164" y="763" type="line"/>
    </contour>
    <component base="_danda" xOffset="351"/>
    <component base="_cap.shiro_left"/>
  </outline>
</glyph>
<glyph name="Ga.gm" format="2">
  <advance width="943"/>
  <unicode hex="0A17"/>
  <anchor x="1043" y="100" name="bottom"/>
  <anchor x="928" y="100" name="bottom1"/>
  <anchor x="843" y="1200" name="top"/>
  <outline>
    <contour>
      <point x="326" y="-18" type="curve" smooth="yes"/>
      <point x="430" y="-18"/>
      <point x="486" y="58"/>
      <point x="486" y="201" type="curve" smooth="yes"/>
      <point x="486" y="1196" type="line"/>
      <point x="449" y="1196" type="line"/>
      <point x="449" y="806" type="line"/>
      <point x="449" y="804" type="line"/>
      <point x="449" y="202" type="line" smooth="yes"/>
      <point x="449" y="80"/>
      <point x="407" y="17"/>
      <point x="326" y="17" type="curve" smooth="yes"/>
      <point x="204" y="17"/>
      <point x="140" y="134"/>
      <point x="140" y="359" type="curve" smooth="yes"/>
      <point x="140" y="526" type="line" smooth="yes"/>
      <point x="140" y="706"/>
      <point x="199" y="788"/>
      <point x="329" y="788" type="curve" smooth="yes"/>
      <point x="464" y="788" type="line"/>
      <point x="464" y="822" type="line"/>
      <point x="328" y="822" type="line" smooth="yes"/>
      <point x="174" y="822"/>
      <point x="103" y="729"/>
      <point x="103" y="526" type="curve" smooth="yes"/>
      <point x="103" y="359" type="line" smooth="yes"/>
      <point x="103" y="111"/>
      <point x="179" y="-18"/>
    </contour>
    <contour>
      <point x="18" y="1179" type="line"/>
      <point x="828" y="1179" type="line"/>
      <point x="828" y="1213" type="line"/>
      <point x="18" y="1213" type="line"/>
    </contour>
    <component base="_danda" xOffset="576"/>
    <component base="_cap.shiro_left"/>
  </outline>
</glyph>
<glyph name="Gha.gm" format="2">
  <advance width="953"/>
  <unicode hex="0A18"/>
  <anchor x="1053" y="100" name="bottom"/>
  <anchor x="820" y="100" name="bottom1"/>
  <anchor x="853" y="1200" name="top"/>
  <outline>
    <contour>
      <point x="299" y="252" type="curve" smooth="yes"/>
      <point x="375" y="252"/>
      <point x="432" y="283"/>
      <point x="456" y="304" type="curve"/>
      <point x="485" y="363" type="line"/>
      <point x="486" y="369" type="line"/>
      <point x="470" y="363" type="line"/>
      <point x="436" y="319"/>
      <point x="373" y="287"/>
      <point x="304" y="287" type="curve" smooth="yes"/>
      <point x="197" y="287"/>
      <point x="140" y="339"/>
      <point x="109" y="391" type="curve"/>
      <point x="120" y="349" type="line"/>
      <point x="163" y="468"/>
      <point x="186" y="671"/>
      <point x="186" y="937" type="curve" smooth="yes"/>
      <point x="186" y="1024"/>
      <point x="184" y="1116"/>
      <point x="178" y="1213" type="curve"/>
      <point x="28" y="1213" type="line"/>
      <point x="28" y="1179" type="line"/>
      <point x="143" y="1179" type="line"/>
      <point x="148" y="1095"/>
      <point x="150" y="1013"/>
      <point x="150" y="936" type="curve" smooth="yes"/>
      <point x="150" y="686"/>
      <point x="129" y="482"/>
      <point x="84" y="358" type="curve"/>
      <point x="125" y="296"/>
      <point x="191" y="252"/>
    </contour>
    <contour>
      <point x="636" y="252" type="curve" smooth="yes"/>
      <point x="688" y="252"/>
      <point x="735" y="270"/>
      <point x="754" y="283" type="curve"/>
      <point x="772" y="320" type="line"/>
      <point x="775" y="320" type="line"/>
      <point x="774" y="339" type="line"/>
      <point x="748" y="311"/>
      <point x="702" y="287"/>
      <point x="638" y="287" type="curve" smooth="yes"/>
      <point x="563" y="287"/>
      <point x="512" y="319"/>
      <point x="497" y="367" type="curve"/>
      <point x="467" y="354" type="line"/>
      <point x="483" y="296"/>
      <point x="544" y="252"/>
    </contour>
    <contour>
      <point x="497" y="1205" type="line"/>
      <point x="460" y="1189" type="line"/>
      <point x="460" y="1043" type="line" smooth="yes"/>
      <point x="460" y="848"/>
      <point x="460" y="539"/>
      <point x="461" y="342" type="curve"/>
      <point x="497" y="342" type="line"/>
      <point x="497" y="545"/>
      <point x="497" y="848"/>
      <point x="497" y="1043" type="curve" smooth="yes"/>
    </contour>
    <component base="_danda" xOffset="586"/>
    <component base="_cap.shiro_left"/>
  </outline>
</glyph>
<glyph name="Nga.gm" format="2">
  <advance width="650"/>
  <unicode hex="0A19"/>
  <anchor x="630" y="100" name="bottom"/>
  <anchor x="705" y="80" name="bottom1"/>
  <anchor x="563" y="1200" name="top"/>
  <outline>
    <contour>
      <point x="17" y="1179" type="line"/>
      <point x="151" y="1179" type="line"/>
      <point x="153" y="1179" type="line"/>
      <point x="633" y="1179" type="line"/>
      <point x="633" y="1213" type="line"/>
      <point x="17" y="1213" type="line"/>
    </contour>
    <contour>
      <point x="278" y="35" type="curve" smooth="yes"/>
      <point x="388" y="35"/>
      <point x="448" y="103"/>
      <point x="481" y="175" type="curve"/>
      <point x="482" y="178" type="line"/>
      <point x="525" y="265"/>
      <point x="545" y="360"/>
      <point x="545" y="469" type="curve" smooth="yes"/>
      <point x="545" y="627" type="line" smooth="yes"/>
      <point x="545" y="787"/>
      <point x="469" y="870"/>
      <point x="321" y="870" type="curve" smooth="yes"/>
      <point x="170" y="870" type="line"/>
      <point x="170" y="1198" type="line"/>
      <point x="133" y="1198" type="line"/>
      <point x="133" y="836" type="line"/>
      <point x="321" y="836" type="line" smooth="yes"/>
      <point x="444" y="836"/>
      <point x="508" y="764"/>
      <point x="508" y="627" type="curve" smooth="yes"/>
      <point x="508" y="471" type="line" smooth="yes"/>
      <point x="508" y="368"/>
      <point x="496" y="296"/>
      <point x="469" y="227" type="curve"/>
      <point x="467" y="227" type="line"/>
      <point x="430" y="132"/>
      <point x="377" y="70"/>
      <point x="280" y="70" type="curve" smooth="yes"/>
      <point x="188" y="70"/>
      <point x="133" y="140"/>
      <point x="133" y="259" type="curve" smooth="yes"/>
      <point x="133" y="270" type="line" smooth="yes"/>
      <point x="133" y="391"/>
      <point x="182" y="463"/>
      <point x="266" y="463" type="curve" smooth="yes"/>
      <point x="354" y="463"/>
      <point x="421" y="389"/>
      <point x="463" y="182" type="curve"/>
      <point x="483" y="221" type="line"/>
      <point x="445" y="423"/>
      <point x="371" y="498"/>
      <point x="264" y="498" type="curve" smooth="yes"/>
      <point x="158" y="498"/>
      <point x="96" y="414"/>
      <point x="96" y="272" type="curve" smooth="yes"/>
      <point x="96" y="259" type="line" smooth="yes"/>
      <point x="96" y="118"/>
      <point x="164" y="35"/>
    </contour>
    <contour>
      <point x="507" y="-77" type="line"/>
      <point x="546" y="-77" type="line"/>
      <point x="485" y="221" type="line"/>
      <point x="463" y="180" type="line"/>
    </contour>
    <component base="_cap.shiro_left"/>
    <component base="_cap.shiro_right" xOffset="458"/>
  </outline>
</glyph>
<glyph name="Ca.gm" format="2">
  <advance width="696"/>
  <unicode hex="0A1A"/>
  <anchor x="725" y="100" name="bottom"/>
  <anchor x="721" y="100" name="bottom1"/>
  <anchor x="604" y="1200" name="top"/>
  <outline>
    <contour>
      <point x="372" y="-18" type="curve" smooth="yes"/>
      <point x="504" y="-18"/>
      <point x="560" y="70"/>
      <point x="560" y="237" type="curve" smooth="yes"/>
      <point x="560" y="1194" type="line"/>
      <point x="523" y="1194" type="line"/>
      <point x="523" y="702" type="line"/>
      <point x="523" y="701" type="line"/>
      <point x="523" y="239" type="line" smooth="yes"/>
      <point x="523" y="92"/>
      <point x="482" y="17"/>
      <point x="372" y="17" type="curve" smooth="yes"/>
      <point x="235" y="17"/>
      <point x="164" y="152"/>
      <point x="164" y="412" type="curve" smooth="yes"/>
      <point x="164" y="964" type="line"/>
      <point x="127" y="944" type="line"/>
      <point x="127" y="412" type="line" smooth="yes"/>
      <point x="127" y="129"/>
      <point x="211" y="-18"/>
    </contour>
    <contour>
      <point x="146" y="684" type="line"/>
      <point x="543" y="684" type="line"/>
      <point x="543" y="718" type="line"/>
      <point x="146" y="718" type="line"/>
    </contour>
    <contour>
      <point x="17" y="1179" type="line"/>
      <point x="686" y="1179" type="line"/>
      <point x="686" y="1213" type="line"/>
      <point x="17" y="1213" type="line"/>
    </contour>
    <component base="_cap.shiro_left"/>
    <component base="_cap.shiro_right" xOffset="504"/>
  </outline>
</glyph>
<glyph name="Cha.gm" format="2">
  <advance width="702"/>
  <unicode hex="0A1B"/>
  <anchor x="729" y="100" name="bottom"/>
  <anchor x="725" y="100" name="bottom1"/>
  <anchor x="604" y="1200" name="top"/>
  <outline>
    <contour>
      <point x="363" y="-20" type="line"/>
      <point x="406" y="-20" type="line" smooth="yes"/>
      <point x="535" y="-20"/>
      <point x="611" y="60"/>
      <point x="611" y="196" type="curve" smooth="yes"/>
      <point x="611" y="306" type="line" smooth="yes"/>
      <point x="611" y="437"/>
      <point x="537" y="513"/>
      <point x="410" y="513" type="curve" smooth="yes"/>
      <point x="296" y="513" type="line" smooth="yes"/>
      <point x="208" y="513"/>
      <point x="149" y="581"/>
      <point x="149" y="677" type="curve" smooth="yes"/>
      <point x="149" y="787"/>
      <point x="204" y="853"/>
      <point x="313" y="853" type="curve" smooth="yes"/>
      <point x="560" y="853" type="line"/>
      <point x="560" y="1198" type="line"/>
      <point x="523" y="1198" type="line"/>
      <point x="523" y="887" type="line"/>
      <point x="309" y="887" type="line" smooth="yes"/>
      <point x="180" y="887"/>
      <point x="111" y="807"/>
      <point x="111" y="677" type="curve" smooth="yes"/>
      <point x="111" y="570"/>
      <point x="182" y="491"/>
      <point x="285" y="491" type="curve"/>
      <point x="285" y="489" type="line"/>
      <point x="305" y="479" type="line"/>
      <point x="412" y="479" type="line" smooth="yes"/>
      <point x="513" y="479"/>
      <point x="574" y="417"/>
      <point x="574" y="306" type="curve" smooth="yes"/>
      <point x="574" y="196" type="line" smooth="yes"/>
      <point x="574" y="80"/>
      <point x="511" y="14"/>
      <point x="405" y="14" type="curve" smooth="yes"/>
      <point x="363" y="14" type="line"/>
    </contour>
    <contour>
      <point x="320" y="-20" type="curve"/>
      <point x="365" y="-20" type="line"/>
      <point x="365" y="14" type="line"/>
      <point x="318" y="14" type="line" smooth="yes"/>
      <point x="212" y="14"/>
      <point x="147" y="80"/>
      <point x="147" y="196" type="curve" smooth="yes"/>
      <point x="147" y="306" type="line" smooth="yes"/>
      <point x="147" y="409"/>
      <point x="204" y="479"/>
      <point x="289" y="479" type="curve" smooth="yes"/>
      <point x="331" y="479" type="line"/>
      <point x="331" y="504" type="line"/>
      <point x="280" y="504" type="line" smooth="yes"/>
      <point x="178" y="504"/>
      <point x="110" y="422"/>
      <point x="110" y="306" type="curve" smooth="yes"/>
      <point x="110" y="196" type="line" smooth="yes"/>
      <point x="110" y="60"/>
      <point x="188" y="-20"/>
    </contour>
    <contour>
      <point x="345" y="-4" type="line"/>
      <point x="382" y="-4" type="line"/>
      <point x="382" y="497" type="line"/>
      <point x="345" y="497" type="line"/>
    </contour>
    <contour>
      <point x="18" y="1179" type="line"/>
      <point x="540" y="1179" type="line"/>
      <point x="542" y="1179" type="line"/>
      <point x="671" y="1179" type="line"/>
      <point x="671" y="1213" type="line"/>
      <point x="18" y="1213" type="line"/>
    </contour>
    <component base="_cap.shiro_left"/>
    <component base="_cap.shiro_right" xOffset="510"/>
  </outline>
</glyph>
<glyph name="Ja.gm" format="2">
  <advance width="694"/>
  <unicode hex="0A1C"/>
  <anchor x="794" y="100" name="bottom"/>
  <anchor x="706" y="100" name="bottom1"/>
  <anchor x="594" y="1200" name="top"/>
  <outline>
    <contour>
      <point x="113" y="0" type="curve"/>
      <point x="150" y="0" type="line"/>
      <point x="164" y="183"/>
      <point x="173" y="404"/>
      <point x="173" y="595" type="curve" smooth="yes"/>
      <point x="173" y="725"/>
      <point x="167" y="852"/>
      <point x="155" y="964" type="curve"/>
      <point x="119" y="948" type="line"/>
      <point x="130" y="846"/>
      <point x="136" y="723"/>
      <point x="136" y="596" type="curve" smooth="yes"/>
      <point x="136" y="404"/>
      <point x="127" y="183"/>
    </contour>
    <contour>
      <point x="154" y="654" type="line"/>
      <point x="531" y="654" type="line"/>
      <point x="531" y="688" type="line"/>
      <point x="154" y="688" type="line"/>
    </contour>
    <contour>
      <point x="18" y="1179" type="line"/>
      <point x="592" y="1179" type="line"/>
      <point x="592" y="1213" type="line"/>
      <point x="18" y="1213" type="line"/>
    </contour>
    <component base="_danda" xOffset="327"/>
    <component base="_cap.shiro_left"/>
  </outline>
</glyph>
<glyph name="Jha.gm" format="2">
  <advance width="661"/>
  <unicode hex="0A1D"/>
  <anchor x="600" y="30" name="bottom"/>
  <anchor x="675" y="0" name="bottom1"/>
  <anchor x="573" y="1200" name="top"/>
  <outline>
    <contour>
      <point x="316" y="56" type="curve" smooth="yes"/>
      <point x="470" y="56"/>
      <point x="544" y="151"/>
      <point x="544" y="331" type="curve" smooth="yes"/>
      <point x="544" y="433" type="line" smooth="yes"/>
      <point x="544" y="573"/>
      <point x="465" y="663"/>
      <point x="344" y="663" type="curve"/>
      <point x="344" y="682" type="line"/>
      <point x="316" y="682" type="line"/>
      <point x="289" y="682" type="line"/>
      <point x="289" y="668" type="line"/>
      <point x="226" y="668"/>
      <point x="147" y="653"/>
      <point x="97" y="632" type="curve"/>
      <point x="92" y="592" type="line"/>
      <point x="157" y="620"/>
      <point x="240" y="644"/>
      <point x="315" y="644" type="curve"/>
      <point x="446" y="644"/>
      <point x="507" y="551"/>
      <point x="507" y="433" type="curve" smooth="yes"/>
      <point x="507" y="331" type="line" smooth="yes"/>
      <point x="507" y="173"/>
      <point x="449" y="91"/>
      <point x="316" y="91" type="curve" smooth="yes"/>
      <point x="230" y="91"/>
      <point x="150" y="121"/>
      <point x="98" y="174" type="curve"/>
      <point x="104" y="122" type="line"/>
      <point x="147" y="81"/>
      <point x="227" y="56"/>
    </contour>
    <contour>
      <point x="327" y="-167" type="line"/>
      <point x="370" y="-169" type="line"/>
      <point x="309" y="-80"/>
      <point x="247" y="7"/>
      <point x="197" y="71" type="curve"/>
      <point x="208" y="91" type="line"/>
      <point x="137" y="101" type="line"/>
    </contour>
    <contour>
      <point x="315" y="659" type="curve"/>
      <point x="326" y="682" type="line"/>
      <point x="210" y="682"/>
      <point x="150" y="759"/>
      <point x="150" y="902" type="curve" smooth="yes"/>
      <point x="150" y="1198" type="line"/>
      <point x="113" y="1198" type="line"/>
      <point x="113" y="902" type="line" smooth="yes"/>
      <point x="113" y="742"/>
      <point x="183" y="659"/>
    </contour>
    <contour>
      <point x="18" y="1179" type="line"/>
      <point x="130" y="1179" type="line"/>
      <point x="132" y="1179" type="line"/>
      <point x="512" y="1179" type="line"/>
      <point x="514" y="1179" type="line"/>
      <point x="650" y="1179" type="line"/>
      <point x="650" y="1213" type="line"/>
      <point x="18" y="1213" type="line"/>
    </contour>
    <contour>
      <point x="529" y="902" type="curve" smooth="yes"/>
      <point x="529" y="1198" type="line"/>
      <point x="492" y="1198" type="line"/>
      <point x="492" y="902" type="line" smooth="yes"/>
      <point x="492" y="759"/>
      <point x="434" y="682"/>
      <point x="316" y="682" type="curve"/>
      <point x="328" y="659" type="line"/>
      <point x="461" y="659"/>
      <point x="529" y="742"/>
    </contour>
    <component base="_cap.shiro_left"/>
    <component base="_cap.shiro_right" xOffset="469"/>
  </outline>
</glyph>
<glyph name="Nya.gm" format="2">
  <advance width="668"/>
  <unicode hex="0A1E"/>
  <anchor x="736" y="100" name="bottom"/>
  <anchor x="745" y="100" name="bottom1"/>
  <anchor x="582" y="1200" name="top"/>
  <outline>
    <contour>
      <point x="303" y="391" type="curve"/>
      <point x="534" y="391" type="line"/>
      <point x="534" y="425" type="line"/>
      <point x="303" y="425" type="line" smooth="yes"/>
      <point x="198" y="425"/>
      <point x="121" y="462"/>
      <point x="121" y="620" type="curve" smooth="yes"/>
      <point x="121" y="744"/>
      <point x="187" y="787"/>
      <point x="311" y="787" type="curve" smooth="yes"/>
      <point x="538" y="787" type="line"/>
      <point x="538" y="1196" type="line"/>
      <point x="501" y="1196" type="line"/>
      <point x="501" y="821" type="line"/>
      <point x="311" y="821" type="line" smooth="yes"/>
      <point x="169" y="821"/>
      <point x="83" y="763"/>
      <point x="83" y="620" type="curve" smooth="yes"/>
      <point x="83" y="443"/>
      <point x="180" y="391"/>
    </contour>
    <contour>
      <point x="510" y="-15" type="curve" smooth="yes"/>
      <point x="519" y="-15"/>
      <point x="543" y="-14"/>
      <point x="574" y="-12" type="curve"/>
      <point x="579" y="24" type="line"/>
      <point x="551" y="21"/>
      <point x="528" y="20"/>
      <point x="510" y="20" type="curve" smooth="yes"/>
      <point x="349" y="20"/>
      <point x="268" y="133"/>
      <point x="259" y="413" type="curve"/>
      <point x="221" y="418" type="line"/>
      <point x="233" y="115"/>
      <point x="322" y="-15"/>
    </contour>
    <contour>
      <point x="253" y="797" type="curve"/>
      <point x="289" y="797" type="line"/>
      <point x="242" y="901"/>
      <point x="207" y="1040"/>
      <point x="185" y="1203" type="curve"/>
      <point x="147" y="1203" type="line"/>
      <point x="168" y="1041"/>
      <point x="205" y="902"/>
    </contour>
    <contour>
      <point x="18" y="1179" type="line"/>
      <point x="163" y="1179" type="line"/>
      <point x="174" y="1179" type="line"/>
      <point x="516" y="1179" type="line"/>
      <point x="526" y="1179" type="line"/>
      <point x="640" y="1179" type="line"/>
      <point x="640" y="1213" type="line"/>
      <point x="18" y="1213" type="line"/>
    </contour>
    <component base="_cap.shiro_left"/>
    <component base="_cap.shiro_right" xOffset="476"/>
  </outline>
</glyph>
<glyph name="Tta.gm" format="2">
  <advance width="590"/>
  <unicode hex="0A1F"/>
  <anchor x="680" y="100" name="bottom"/>
  <anchor x="691" y="100" name="bottom1"/>
  <anchor x="520" y="1200" name="top"/>
  <outline>
    <contour>
      <point x="338" y="-9" type="curve" smooth="yes"/>
      <point x="434" y="-9"/>
      <point x="494" y="26"/>
      <point x="525" y="64" type="curve"/>
      <point x="530" y="116" type="line"/>
      <point x="493" y="68"/>
      <point x="429" y="26"/>
      <point x="338" y="26" type="curve" smooth="yes"/>
      <point x="209" y="26"/>
      <point x="150" y="99"/>
      <point x="150" y="254" type="curve"/>
      <point x="150" y="594" type="line"/>
      <point x="126" y="553" type="line"/>
      <point x="263" y="667"/>
      <point x="373" y="746"/>
      <point x="476" y="803" type="curve"/>
      <point x="476" y="1197" type="line"/>
      <point x="439" y="1197" type="line"/>
      <point x="439" y="799" type="line"/>
      <point x="465" y="840" type="line"/>
      <point x="306" y="740"/>
      <point x="195" y="660"/>
      <point x="113" y="586" type="curve"/>
      <point x="113" y="250" type="line"/>
      <point x="113" y="77"/>
      <point x="187" y="-9"/>
    </contour>
    <contour>
      <point x="18" y="1179" type="line"/>
      <point x="563" y="1179" type="line"/>
      <point x="563" y="1213" type="line"/>
      <point x="18" y="1213" type="line"/>
    </contour>
    <component base="_cap.shiro_left"/>
    <component base="_cap.shiro_right" xOffset="408"/>
  </outline>
</glyph>
<glyph name="Ttha.gm" format="2">
  <advance width="669"/>
  <unicode hex="0A20"/>
  <anchor x="650" y="100" name="bottom"/>
  <anchor x="700" y="100" name="bottom1"/>
  <anchor x="399" y="1200" name="top"/>
  <outline>
    <contour>
      <point x="335" y="-18" type="curve" smooth="yes"/>
      <point x="491" y="-18"/>
      <point x="566" y="77"/>
      <point x="566" y="269" type="curve" smooth="yes"/>
      <point x="566" y="561" type="line" smooth="yes"/>
      <point x="566" y="719"/>
      <point x="490" y="829"/>
      <point x="337" y="881" type="curve"/>
      <point x="184" y="823"/>
      <point x="104" y="715"/>
      <point x="104" y="561" type="curve" smooth="yes"/>
      <point x="104" y="269" type="line" smooth="yes"/>
      <point x="104" y="77"/>
      <point x="179" y="-18"/>
    </contour>
    <contour>
      <point x="335" y="17" type="curve" smooth="yes"/>
      <point x="199" y="17"/>
      <point x="141" y="97"/>
      <point x="141" y="269" type="curve" smooth="yes"/>
      <point x="141" y="561" type="line" smooth="yes"/>
      <point x="141" y="697"/>
      <point x="202" y="784"/>
      <point x="337" y="842" type="curve"/>
      <point x="472" y="788"/>
      <point x="529" y="701"/>
      <point x="529" y="561" type="curve" smooth="yes"/>
      <point x="529" y="269" type="line" smooth="yes"/>
      <point x="529" y="97"/>
      <point x="471" y="17"/>
    </contour>
    <contour>
      <point x="318" y="868" type="line"/>
      <point x="355" y="868" type="line"/>
      <point x="355" y="1195" type="line"/>
      <point x="318" y="1195" type="line"/>
    </contour>
    <contour>
      <point x="18" y="1179" type="line"/>
      <point x="662" y="1179" type="line"/>
      <point x="662" y="1213" type="line"/>
      <point x="18" y="1213" type="line"/>
    </contour>
    <component base="_cap.shiro_left"/>
    <component base="_cap.shiro_right" xOffset="477"/>
  </outline>
</glyph>
<glyph name="Dda.gm" format="2">
  <advance width="615"/>
  <unicode hex="0A21"/>
  <anchor x="650" y="100" name="bottom"/>
  <anchor x="651" y="100" name="bottom1"/>
  <anchor x="540" y="1200" name="top"/>
  <outline>
    <contour>
      <point x="286" y="-18" type="curve" smooth="yes"/>
      <point x="432" y="-18"/>
      <point x="512" y="91"/>
      <point x="512" y="267" type="curve" smooth="yes"/>
      <point x="512" y="456" type="line" smooth="yes"/>
      <point x="512" y="622"/>
      <point x="453" y="745"/>
      <point x="314" y="745" type="curve"/>
      <point x="340" y="724" type="line"/>
      <point x="340" y="734" type="line"/>
      <point x="441" y="734"/>
      <point x="496" y="843"/>
      <point x="496" y="983" type="curve" smooth="yes"/>
      <point x="496" y="1198" type="line"/>
      <point x="459" y="1198" type="line"/>
      <point x="459" y="983" type="line" smooth="yes"/>
      <point x="459" y="862"/>
      <point x="422" y="755"/>
      <point x="305" y="755" type="curve" smooth="yes"/>
      <point x="135" y="755" type="line"/>
      <point x="135" y="721" type="line"/>
      <point x="308" y="721" type="line" smooth="yes"/>
      <point x="438" y="721"/>
      <point x="475" y="603"/>
      <point x="475" y="454" type="curve" smooth="yes"/>
      <point x="475" y="267" type="line"/>
      <point x="475" y="102"/>
      <point x="411" y="17"/>
      <point x="286" y="17" type="curve" smooth="yes"/>
      <point x="177" y="17"/>
      <point x="112" y="87"/>
      <point x="112" y="205" type="curve" smooth="yes"/>
      <point x="112" y="214" type="line" smooth="yes"/>
      <point x="112" y="321"/>
      <point x="176" y="399"/>
      <point x="273" y="399" type="curve" smooth="yes"/>
      <point x="390" y="399"/>
      <point x="459" y="324"/>
      <point x="475" y="170" type="curve"/>
      <point x="491" y="192" type="line"/>
      <point x="481" y="346"/>
      <point x="407" y="434"/>
      <point x="271" y="434" type="curve" smooth="yes"/>
      <point x="155" y="434"/>
      <point x="75" y="340"/>
      <point x="75" y="214" type="curve" smooth="yes"/>
      <point x="75" y="205" type="line" smooth="yes"/>
      <point x="75" y="67"/>
      <point x="155" y="-18"/>
    </contour>
    <contour>
      <point x="18" y="1179" type="line"/>
      <point x="496" y="1179" type="line"/>
      <point x="498" y="1179" type="line"/>
      <point x="610" y="1179" type="line"/>
      <point x="610" y="1213" type="line"/>
      <point x="18" y="1213" type="line"/>
    </contour>
    <component base="_cap.shiro_left"/>
    <component base="_cap.shiro_right" xOffset="423"/>
  </outline>
</glyph>
<glyph name="Ddha.gm" format="2">
  <advance width="618"/>
  <unicode hex="0A22"/>
  <anchor x="680" y="100" name="bottom"/>
  <anchor x="695" y="100" name="bottom1"/>
  <anchor x="538" y="1200" name="top"/>
  <outline>
    <contour>
      <point x="359" y="-18" type="curve" smooth="yes"/>
      <point x="478" y="-18"/>
      <point x="554" y="69"/>
      <point x="554" y="205" type="curve" smooth="yes"/>
      <point x="554" y="214" type="line" smooth="yes"/>
      <point x="554" y="348"/>
      <point x="478" y="434"/>
      <point x="360" y="434" type="curve" smooth="yes"/>
      <point x="233" y="434"/>
      <point x="144" y="338"/>
      <point x="142" y="190" type="curve"/>
      <point x="158" y="171" type="line"/>
      <point x="169" y="314"/>
      <point x="247" y="399"/>
      <point x="358" y="399" type="curve" smooth="yes"/>
      <point x="455" y="399"/>
      <point x="517" y="327"/>
      <point x="517" y="214" type="curve" smooth="yes"/>
      <point x="517" y="205" type="line" smooth="yes"/>
      <point x="517" y="90"/>
      <point x="456" y="17"/>
      <point x="359" y="17" type="curve" smooth="yes"/>
      <point x="199" y="17"/>
      <point x="154" y="179"/>
      <point x="154" y="372" type="curve"/>
      <point x="154" y="1017" type="line"/>
      <point x="117" y="997" type="line"/>
      <point x="117" y="372" type="line" smooth="yes"/>
      <point x="117" y="116"/>
      <point x="200" y="-18"/>
    </contour>
    <contour>
      <point x="137" y="766" type="line"/>
      <point x="494" y="766" type="line"/>
      <point x="494" y="1198" type="line"/>
      <point x="457" y="1198" type="line"/>
      <point x="457" y="800" type="line"/>
      <point x="137" y="800" type="line"/>
    </contour>
    <contour>
      <point x="28" y="1179" type="line"/>
      <point x="604" y="1179" type="line"/>
      <point x="604" y="1213" type="line"/>
      <point x="28" y="1213" type="line"/>
    </contour>
    <component base="_cap.shiro_left"/>
    <component base="_cap.shiro_right" xOffset="426"/>
  </outline>
</glyph>
<glyph name="Nna.gm" format="2">
  <advance width="592"/>
  <unicode hex="0A23"/>
  <anchor x="670" y="100" name="bottom"/>
  <anchor x="685" y="100" name="bottom1"/>
  <anchor x="546" y="1200" name="top"/>
  <outline>
    <contour>
      <point x="343" y="-10" type="curve" smooth="yes"/>
      <point x="416" y="-10"/>
      <point x="483" y="15"/>
      <point x="518" y="56" type="curve"/>
      <point x="524" y="108" type="line"/>
      <point x="481" y="55"/>
      <point x="414" y="25"/>
      <point x="343" y="25" type="curve" smooth="yes"/>
      <point x="202" y="25"/>
      <point x="138" y="111"/>
      <point x="138" y="293" type="curve" smooth="yes"/>
      <point x="138" y="428" type="line"/>
      <point x="116" y="388" type="line"/>
      <point x="196" y="444"/>
      <point x="291" y="497"/>
      <point x="392" y="542" type="curve"/>
      <point x="392" y="736" type="line"/>
      <point x="355" y="746" type="line"/>
      <point x="355" y="563" type="line"/>
      <point x="248" y="511"/>
      <point x="161" y="462"/>
      <point x="101" y="421" type="curve"/>
      <point x="101" y="289" type="line" smooth="yes"/>
      <point x="101" y="89"/>
      <point x="180" y="-10"/>
    </contour>
    <contour>
      <point x="480" y="711" type="curve" smooth="yes"/>
      <point x="518" y="711" type="line"/>
      <point x="518" y="744" type="line"/>
      <point x="480" y="744" type="line" smooth="yes"/>
      <point x="294" y="744"/>
      <point x="201" y="847"/>
      <point x="201" y="1045" type="curve" smooth="yes"/>
      <point x="201" y="1195" type="line"/>
      <point x="164" y="1195" type="line"/>
      <point x="164" y="1045" type="line" smooth="yes"/>
      <point x="164" y="826"/>
      <point x="270" y="711"/>
    </contour>
    <contour>
      <point x="17" y="1179" type="line"/>
      <point x="571" y="1179" type="line"/>
      <point x="571" y="1213" type="line"/>
      <point x="17" y="1213" type="line"/>
    </contour>
    <component base="_cap.shiro_left"/>
    <component base="_cap.shiro_right" xOffset="400"/>
  </outline>
</glyph>
<glyph name="Ta.gm" format="2">
  <advance width="573"/>
  <unicode hex="0A24"/>
  <anchor x="580" y="100" name="bottom"/>
  <anchor x="615" y="100" name="bottom1"/>
  <anchor x="500" y="1200" name="top"/>
  <outline>
    <contour>
      <point x="18" y="1179" type="line"/>
      <point x="549" y="1179" type="line"/>
      <point x="549" y="1213" type="line"/>
      <point x="18" y="1213" type="line"/>
    </contour>
    <contour>
      <point x="239" y="-10" type="curve" smooth="yes"/>
      <point x="395" y="-10"/>
      <point x="470" y="89"/>
      <point x="470" y="269" type="curve" smooth="yes"/>
      <point x="470" y="412" type="line" smooth="yes"/>
      <point x="470" y="577"/>
      <point x="428" y="679"/>
      <point x="284" y="679" type="curve"/>
      <point x="310" y="658" type="line"/>
      <point x="310" y="669" type="line"/>
      <point x="409" y="669"/>
      <point x="456" y="770"/>
      <point x="456" y="900" type="curve" smooth="yes"/>
      <point x="456" y="1198" type="line"/>
      <point x="419" y="1198" type="line"/>
      <point x="419" y="900" type="line" smooth="yes"/>
      <point x="419" y="790"/>
      <point x="398" y="689"/>
      <point x="275" y="689" type="curve" smooth="yes"/>
      <point x="108" y="689" type="line"/>
      <point x="108" y="655" type="line"/>
      <point x="278" y="655" type="line" smooth="yes"/>
      <point x="408" y="655"/>
      <point x="433" y="549"/>
      <point x="433" y="410" type="curve"/>
      <point x="433" y="273" type="line" smooth="yes"/>
      <point x="433" y="111"/>
      <point x="373" y="25"/>
      <point x="239" y="25" type="curve" smooth="yes"/>
      <point x="166" y="25"/>
      <point x="98" y="55"/>
      <point x="54" y="108" type="curve"/>
      <point x="60" y="56" type="line"/>
      <point x="96" y="15"/>
      <point x="164" y="-10"/>
    </contour>
    <component base="_cap.shiro_left"/>
    <component base="_cap.shiro_right" xOffset="381"/>
  </outline>
</glyph>
<glyph name="Tha.gm" format="2">
  <advance width="708"/>
  <unicode hex="0A25"/>
  <anchor x="808" y="100" name="bottom"/>
  <anchor x="695" y="100" name="bottom1"/>
  <anchor x="608" y="1200" name="top"/>
  <outline>
    <contour>
      <point x="152" y="730" type="line"/>
      <point x="548" y="730" type="line"/>
      <point x="548" y="764" type="line"/>
      <point x="152" y="764" type="line"/>
    </contour>
    <contour>
      <point x="87" y="1179" type="line"/>
      <point x="152" y="1179" type="line"/>
      <point x="153" y="1179" type="line"/>
      <point x="545" y="1179" type="line"/>
      <point x="548" y="1179" type="line"/>
      <point x="615" y="1179" type="line"/>
      <point x="615" y="1213" type="line"/>
      <point x="87" y="1213" type="line"/>
    </contour>
    <contour>
      <point x="328" y="230" type="curve" smooth="yes"/>
      <point x="422" y="230"/>
      <point x="487" y="270"/>
      <point x="507" y="286" type="curve"/>
      <point x="528" y="335" type="line"/>
      <point x="535" y="335" type="line"/>
      <point x="532" y="351" type="line"/>
      <point x="499" y="307"/>
      <point x="418" y="265"/>
      <point x="329" y="265" type="curve" smooth="yes"/>
      <point x="220" y="265"/>
      <point x="141" y="317"/>
      <point x="104" y="384" type="curve"/>
      <point x="110" y="350" type="line"/>
      <point x="152" y="460"/>
      <point x="176" y="671"/>
      <point x="176" y="937" type="curve" smooth="yes"/>
      <point x="176" y="1024"/>
      <point x="174" y="1116"/>
      <point x="168" y="1213" type="curve"/>
      <point x="18" y="1213" type="line"/>
      <point x="18" y="1179" type="line"/>
      <point x="133" y="1179" type="line"/>
      <point x="138" y="1095"/>
      <point x="139" y="1013"/>
      <point x="139" y="936" type="curve" smooth="yes"/>
      <point x="139" y="686"/>
      <point x="119" y="480"/>
      <point x="74" y="356" type="curve"/>
      <point x="128" y="278"/>
      <point x="212" y="230"/>
    </contour>
    <component base="_danda" xOffset="341"/>
    <component base="_cap.shiro_left"/>
  </outline>
</glyph>
<glyph name="Da.gm" format="2">
  <advance width="656"/>
  <unicode hex="0A26"/>
  <anchor x="710" y="100" name="bottom"/>
  <anchor x="740" y="100" name="bottom1"/>
  <anchor x="576" y="1200" name="top"/>
  <outline>
    <contour>
      <point x="390" y="-10" type="curve" smooth="yes"/>
      <point x="471" y="-10"/>
      <point x="536" y="17"/>
      <point x="575" y="56" type="curve"/>
      <point x="581" y="108" type="line"/>
      <point x="542" y="56"/>
      <point x="465" y="25"/>
      <point x="390" y="25" type="curve" smooth="yes"/>
      <point x="246" y="25"/>
      <point x="171" y="111"/>
      <point x="171" y="293" type="curve" smooth="yes"/>
      <point x="171" y="679" type="line"/>
      <point x="171" y="683" type="line"/>
      <point x="171" y="962" type="line"/>
      <point x="134" y="946" type="line"/>
      <point x="134" y="289" type="line" smooth="yes"/>
      <point x="134" y="90"/>
      <point x="224" y="-10"/>
    </contour>
    <contour>
      <point x="154" y="664" type="line"/>
      <point x="532" y="664" type="line"/>
      <point x="532" y="1196" type="line"/>
      <point x="495" y="1196" type="line"/>
      <point x="495" y="698" type="line"/>
      <point x="154" y="698" type="line"/>
    </contour>
    <contour>
      <point x="18" y="1179" type="line"/>
      <point x="630" y="1179" type="line"/>
      <point x="630" y="1213" type="line"/>
      <point x="18" y="1213" type="line"/>
    </contour>
    <component base="_cap.shiro_left"/>
    <component base="_cap.shiro_right" xOffset="464"/>
  </outline>
</glyph>
<glyph name="Dha.gm" format="2">
  <advance width="703"/>
  <unicode hex="0A27"/>
  <anchor x="803" y="100" name="bottom"/>
  <anchor x="700" y="100" name="bottom1"/>
  <anchor x="603" y="1200" name="top"/>
  <outline>
    <contour>
      <point x="89" y="1179" type="line"/>
      <point x="615" y="1179" type="line"/>
      <point x="615" y="1213" type="line"/>
      <point x="89" y="1213" type="line"/>
    </contour>
    <contour>
      <point x="338" y="230" type="curve" smooth="yes"/>
      <point x="427" y="230"/>
      <point x="482" y="264"/>
      <point x="502" y="280" type="curve"/>
      <point x="523" y="329" type="line"/>
      <point x="530" y="329" type="line"/>
      <point x="527" y="345" type="line"/>
      <point x="498" y="308"/>
      <point x="428" y="265"/>
      <point x="339" y="265" type="curve" smooth="yes"/>
      <point x="230" y="265"/>
      <point x="151" y="317"/>
      <point x="114" y="384" type="curve"/>
      <point x="120" y="350" type="line"/>
      <point x="162" y="460"/>
      <point x="186" y="671"/>
      <point x="186" y="937" type="curve" smooth="yes"/>
      <point x="186" y="1024"/>
      <point x="184" y="1116"/>
      <point x="178" y="1213" type="curve"/>
      <point x="28" y="1213" type="line"/>
      <point x="28" y="1179" type="line"/>
      <point x="143" y="1179" type="line"/>
      <point x="148" y="1095"/>
      <point x="149" y="1013"/>
      <point x="149" y="936" type="curve" smooth="yes"/>
      <point x="149" y="686"/>
      <point x="129" y="480"/>
      <point x="84" y="356" type="curve"/>
      <point x="138" y="278"/>
      <point x="222" y="230"/>
    </contour>
    <component base="_danda" xOffset="336"/>
    <component base="_cap.shiro_left"/>
  </outline>
</glyph>
<glyph name="Na.gm" format="2">
  <advance width="683"/>
  <unicode hex="0A28"/>
  <anchor x="720" y="100" name="bottom"/>
  <anchor x="707" y="100" name="bottom1"/>
  <anchor x="402" y="1200" name="top"/>
  <outline>
    <contour>
      <point x="190" y="0" type="curve"/>
      <point x="238" y="0" type="line"/>
      <point x="230" y="9" type="line"/>
      <point x="151" y="99"/>
      <point x="143" y="168"/>
      <point x="143" y="292" type="curve" smooth="yes"/>
      <point x="143" y="529" type="line" smooth="yes"/>
      <point x="143" y="707"/>
      <point x="221" y="776"/>
      <point x="339" y="823" type="curve"/>
      <point x="460" y="777"/>
      <point x="537" y="707"/>
      <point x="537" y="529" type="curve" smooth="yes"/>
      <point x="537" y="292" type="line" smooth="yes"/>
      <point x="537" y="155"/>
      <point x="522" y="92"/>
      <point x="450" y="8" type="curve"/>
      <point x="443" y="0" type="line"/>
      <point x="490" y="0" type="line"/>
      <point x="553" y="77"/>
      <point x="574" y="144"/>
      <point x="574" y="296" type="curve" smooth="yes"/>
      <point x="574" y="527" type="line" smooth="yes"/>
      <point x="574" y="730"/>
      <point x="477" y="811"/>
      <point x="339" y="860" type="curve"/>
      <point x="202" y="812"/>
      <point x="106" y="730"/>
      <point x="106" y="527" type="curve" smooth="yes"/>
      <point x="106" y="296" type="line" smooth="yes"/>
      <point x="106" y="144"/>
      <point x="127" y="77"/>
    </contour>
    <contour>
      <point x="321" y="839" type="line"/>
      <point x="358" y="839" type="line"/>
      <point x="358" y="1196" type="line"/>
      <point x="321" y="1196" type="line"/>
    </contour>
    <contour>
      <point x="18" y="1179" type="line"/>
      <point x="648" y="1179" type="line"/>
      <point x="648" y="1213" type="line"/>
      <point x="18" y="1213" type="line"/>
    </contour>
    <component base="_cap.shiro_left"/>
    <component base="_cap.shiro_right" xOffset="491"/>
  </outline>
</glyph>
<glyph name="Pa.gm" format="2">
  <advance width="697"/>
  <unicode hex="0A2A"/>
  <anchor x="797" y="100" name="bottom"/>
  <anchor x="697" y="100" name="bottom1"/>
  <anchor x="597" y="1200" name="top"/>
  <outline>
    <contour>
      <point x="333" y="230" type="curve" smooth="yes"/>
      <point x="421" y="230"/>
      <point x="476" y="264"/>
      <point x="496" y="280" type="curve"/>
      <point x="517" y="329" type="line"/>
      <point x="524" y="329" type="line"/>
      <point x="521" y="345" type="line"/>
      <point x="492" y="308"/>
      <point x="423" y="265"/>
      <point x="334" y="265" type="curve" smooth="yes"/>
      <point x="227" y="265"/>
      <point x="150" y="317"/>
      <point x="114" y="384" type="curve"/>
      <point x="120" y="350" type="line"/>
      <point x="162" y="460"/>
      <point x="186" y="671"/>
      <point x="186" y="937" type="curve" smooth="yes"/>
      <point x="186" y="1024"/>
      <point x="184" y="1116"/>
      <point x="178" y="1213" type="curve"/>
      <point x="28" y="1213" type="line"/>
      <point x="28" y="1179" type="line"/>
      <point x="143" y="1179" type="line"/>
      <point x="148" y="1095"/>
      <point x="149" y="1013"/>
      <point x="149" y="936" type="curve" smooth="yes"/>
      <point x="149" y="686"/>
      <point x="129" y="480"/>
      <point x="84" y="356" type="curve"/>
      <point x="137" y="278"/>
      <point x="219" y="230"/>
    </contour>
    <component base="_danda" xOffset="330"/>
    <component base="_cap.shiro_left"/>
  </outline>
</glyph>
<glyph name="Pha.gm" format="2">
  <advance width="634"/>
  <unicode hex="0A2B"/>
  <anchor x="697" y="100" name="bottom"/>
  <anchor x="710" y="100" name="bottom1"/>
  <anchor x="528" y="1200" name="top"/>
  <outline>
    <contour>
      <point x="349" y="-18" type="curve" smooth="yes"/>
      <point x="468" y="-18"/>
      <point x="544" y="69"/>
      <point x="544" y="205" type="curve" smooth="yes"/>
      <point x="544" y="214" type="line" smooth="yes"/>
      <point x="544" y="348"/>
      <point x="468" y="434"/>
      <point x="350" y="434" type="curve" smooth="yes"/>
      <point x="223" y="434"/>
      <point x="134" y="338"/>
      <point x="132" y="190" type="curve"/>
      <point x="148" y="171" type="line"/>
      <point x="159" y="314"/>
      <point x="237" y="399"/>
      <point x="348" y="399" type="curve" smooth="yes"/>
      <point x="445" y="399"/>
      <point x="507" y="327"/>
      <point x="507" y="214" type="curve" smooth="yes"/>
      <point x="507" y="205" type="line" smooth="yes"/>
      <point x="507" y="90"/>
      <point x="446" y="17"/>
      <point x="349" y="17" type="curve" smooth="yes"/>
      <point x="216" y="17"/>
      <point x="148" y="129"/>
      <point x="144" y="350" type="curve"/>
      <point x="144" y="607" type="line"/>
      <point x="144" y="745"/>
      <point x="208" y="826"/>
      <point x="317" y="826" type="curve" smooth="yes"/>
      <point x="484" y="826" type="line"/>
      <point x="484" y="1187" type="line"/>
      <point x="447" y="1187" type="line"/>
      <point x="447" y="860" type="line"/>
      <point x="317" y="860" type="line" smooth="yes"/>
      <point x="185" y="860"/>
      <point x="107" y="766"/>
      <point x="107" y="607" type="curve" smooth="yes"/>
      <point x="107" y="372" type="line" smooth="yes"/>
      <point x="107" y="116"/>
      <point x="190" y="-18"/>
    </contour>
    <contour>
      <point x="18" y="1179" type="line"/>
      <point x="466" y="1179" type="line"/>
      <point x="468" y="1179" type="line"/>
      <point x="614" y="1179" type="line"/>
      <point x="614" y="1213" type="line"/>
      <point x="18" y="1213" type="line"/>
    </contour>
    <component base="_cap.shiro_left"/>
    <component base="_cap.shiro_right" xOffset="440"/>
  </outline>
</glyph>
<glyph name="Ba.gm" format="2">
  <advance width="702"/>
  <unicode hex="0A2C"/>
  <anchor x="802" y="100" name="bottom"/>
  <anchor x="718" y="100" name="bottom1"/>
  <anchor x="602" y="1200" name="top"/>
  <outline>
    <contour>
      <point x="353" y="183" type="curve" smooth="yes"/>
      <point x="431" y="183"/>
      <point x="485" y="216"/>
      <point x="501" y="228" type="curve"/>
      <point x="522" y="277" type="line"/>
      <point x="529" y="277" type="line"/>
      <point x="526" y="293" type="line"/>
      <point x="497" y="255"/>
      <point x="428" y="218"/>
      <point x="353" y="218" type="curve" smooth="yes"/>
      <point x="200" y="218"/>
      <point x="153" y="327"/>
      <point x="153" y="457" type="curve" smooth="yes"/>
      <point x="153" y="606" type="line"/>
      <point x="140" y="586" type="line"/>
      <point x="226" y="633"/>
      <point x="350" y="685"/>
      <point x="536" y="750" type="curve"/>
      <point x="536" y="785" type="line"/>
      <point x="467" y="762"/>
      <point x="406" y="739"/>
      <point x="351" y="718" type="curve"/>
      <point x="342" y="714" type="line"/>
      <point x="250" y="677"/>
      <point x="177" y="646"/>
      <point x="116" y="612" type="curve"/>
      <point x="116" y="456" type="line" smooth="yes"/>
      <point x="116" y="305"/>
      <point x="178" y="183"/>
    </contour>
    <contour>
      <point x="365" y="704" type="curve"/>
      <point x="416" y="725" type="line"/>
      <point x="218" y="737"/>
      <point x="161" y="838"/>
      <point x="161" y="1005" type="curve" smooth="yes"/>
      <point x="161" y="1195" type="line"/>
      <point x="124" y="1195" type="line"/>
      <point x="124" y="1005" type="line" smooth="yes"/>
      <point x="124" y="815"/>
      <point x="199" y="725"/>
    </contour>
    <contour>
      <point x="13" y="1179" type="line"/>
      <point x="141" y="1179" type="line"/>
      <point x="143" y="1179" type="line"/>
      <point x="539" y="1179" type="line"/>
      <point x="542" y="1179" type="line"/>
      <point x="591" y="1179" type="line"/>
      <point x="591" y="1213" type="line"/>
      <point x="13" y="1213" type="line"/>
    </contour>
    <component base="_danda" xOffset="335"/>
    <component base="_cap.shiro_left"/>
  </outline>
</glyph>
<glyph name="Bha.gm" format="2">
  <advance width="604"/>
  <unicode hex="0A2D"/>
  <anchor x="610" y="100" name="bottom"/>
  <anchor x="628" y="100" name="bottom1"/>
  <anchor x="535" y="1200" name="top"/>
  <outline>
    <contour>
      <point x="256" y="-10" type="curve" smooth="yes"/>
      <point x="422" y="-10"/>
      <point x="502" y="89"/>
      <point x="502" y="289" type="curve" smooth="yes"/>
      <point x="502" y="364" type="line" smooth="yes"/>
      <point x="502" y="506"/>
      <point x="472" y="612"/>
      <point x="446" y="688" type="curve"/>
      <point x="444" y="693" type="line"/>
      <point x="408" y="858"/>
      <point x="340" y="922"/>
      <point x="244" y="922" type="curve" smooth="yes"/>
      <point x="139" y="922"/>
      <point x="63" y="866"/>
      <point x="63" y="682" type="curve" smooth="yes"/>
      <point x="63" y="627" type="line" smooth="yes"/>
      <point x="63" y="449"/>
      <point x="141" y="388"/>
      <point x="244" y="388" type="curve" smooth="yes"/>
      <point x="339" y="388"/>
      <point x="413" y="456"/>
      <point x="445" y="625" type="curve"/>
      <point x="445" y="630" type="line"/>
      <point x="445" y="635" type="line"/>
      <point x="475" y="742"/>
      <point x="491" y="804"/>
      <point x="491" y="968" type="curve" smooth="yes"/>
      <point x="491" y="1200" type="line"/>
      <point x="454" y="1200" type="line"/>
      <point x="454" y="970" type="line" smooth="yes"/>
      <point x="454" y="819"/>
      <point x="443" y="757"/>
      <point x="430" y="699" type="curve"/>
      <point x="430" y="696" type="line"/>
      <point x="404" y="502"/>
      <point x="319" y="423"/>
      <point x="246" y="423" type="curve" smooth="yes"/>
      <point x="165" y="423"/>
      <point x="100" y="472"/>
      <point x="100" y="625" type="curve" smooth="yes"/>
      <point x="100" y="682" type="line" smooth="yes"/>
      <point x="100" y="842"/>
      <point x="163" y="887"/>
      <point x="246" y="887" type="curve" smooth="yes"/>
      <point x="323" y="887"/>
      <point x="396" y="810"/>
      <point x="430" y="630" type="curve"/>
      <point x="430" y="618" type="line"/>
      <point x="449" y="572"/>
      <point x="465" y="472"/>
      <point x="465" y="366" type="curve" smooth="yes"/>
      <point x="465" y="291" type="line" smooth="yes"/>
      <point x="465" y="111"/>
      <point x="400" y="25"/>
      <point x="256" y="25" type="curve" smooth="yes"/>
      <point x="177" y="25"/>
      <point x="99" y="56"/>
      <point x="53" y="108" type="curve"/>
      <point x="58" y="56" type="line"/>
      <point x="95" y="18"/>
      <point x="167" y="-10"/>
    </contour>
    <contour>
      <point x="18" y="1179" type="line"/>
      <point x="571" y="1179" type="line"/>
      <point x="571" y="1213" type="line"/>
      <point x="18" y="1213" type="line"/>
    </contour>
    <component base="_cap.shiro_left"/>
    <component base="_cap.shiro_right" xOffset="412"/>
  </outline>
</glyph>
<glyph name="Ma.gm" format="2">
  <advance width="707"/>
  <unicode hex="0A2E"/>
  <anchor x="807" y="100" name="bottom"/>
  <anchor x="707" y="100" name="bottom1"/>
  <anchor x="607" y="1200" name="top"/>
  <outline>
    <contour>
      <point x="124" y="115" type="curve"/>
      <point x="161" y="115" type="line"/>
      <point x="173" y="242"/>
      <point x="185" y="377"/>
      <point x="185" y="545" type="curve"/>
      <point x="185" y="729"/>
      <point x="180" y="943"/>
      <point x="162" y="1213" type="curve"/>
      <point x="28" y="1213" type="line"/>
      <point x="28" y="1179" type="line"/>
      <point x="127" y="1179" type="line"/>
      <point x="143" y="919"/>
      <point x="148" y="718"/>
      <point x="148" y="543" type="curve"/>
      <point x="148" y="387"/>
      <point x="136" y="241"/>
    </contour>
    <contour>
      <point x="166" y="479" type="line"/>
      <point x="546" y="479" type="line"/>
      <point x="546" y="513" type="line"/>
      <point x="166" y="513" type="line"/>
    </contour>
    <component base="_danda" xOffset="340"/>
    <component base="_cap.shiro_left"/>
  </outline>
</glyph>
<glyph name="Ya.gm" format="2">
  <advance width="906"/>
  <unicode hex="0A2F"/>
  <anchor x="1006" y="100" name="bottom"/>
  <anchor x="791" y="100" name="bottom1"/>
  <anchor x="806" y="1200" name="top"/>
  <outline>
    <contour>
      <point x="327" y="220" type="curve" smooth="yes"/>
      <point x="389" y="220"/>
      <point x="437" y="230"/>
      <point x="469" y="248" type="curve"/>
      <point x="469" y="729" type="line"/>
      <point x="743" y="729" type="line"/>
      <point x="743" y="763" type="line"/>
      <point x="432" y="763" type="line"/>
      <point x="432" y="255" type="line"/>
      <point x="447" y="277" type="line"/>
      <point x="423" y="263"/>
      <point x="383" y="255"/>
      <point x="329" y="255" type="curve" smooth="yes"/>
      <point x="235" y="255"/>
      <point x="165" y="288"/>
      <point x="127" y="351" type="curve"/>
      <point x="165" y="479"/>
      <point x="186" y="653"/>
      <point x="186" y="892" type="curve" smooth="yes"/>
      <point x="186" y="984"/>
      <point x="184" y="1087"/>
      <point x="178" y="1200" type="curve"/>
      <point x="141" y="1200" type="line"/>
      <point x="147" y="1090"/>
      <point x="149" y="991"/>
      <point x="149" y="901" type="curve" smooth="yes"/>
      <point x="149" y="651"/>
      <point x="128" y="474"/>
      <point x="87" y="346" type="curve"/>
      <point x="136" y="263"/>
      <point x="218" y="220"/>
    </contour>
    <contour>
      <point x="30" y="1179" type="line"/>
      <point x="744" y="1179" type="line"/>
      <point x="744" y="1213" type="line"/>
      <point x="30" y="1213" type="line"/>
    </contour>
    <component base="_danda" xOffset="539"/>
    <component base="_cap.shiro_left"/>
  </outline>
</glyph>
<glyph name="La.gm" format="2">
  <advance width="771"/>
  <unicode hex="0A32"/>
  <anchor x="823" y="100" name="bottom"/>
  <anchor x="755" y="100" name="bottom1"/>
  <anchor x="661" y="1200" name="top"/>
  <outline>
    <contour>
      <point x="389" y="486" type="curve"/>
      <point x="518" y="654"/>
      <point x="575" y="928"/>
      <point x="619" y="1194" type="curve"/>
      <point x="619" y="1198" type="line"/>
      <point x="582" y="1198" type="line"/>
      <point x="582" y="1194" type="line"/>
      <point x="541" y="955"/>
      <point x="500" y="722"/>
      <point x="389" y="546" type="curve"/>
      <point x="268" y="722"/>
      <point x="226" y="955"/>
      <point x="196" y="1194" type="curve"/>
      <point x="196" y="1198" type="line"/>
      <point x="159" y="1198" type="line"/>
      <point x="159" y="1194" type="line"/>
      <point x="192" y="928"/>
      <point x="250" y="654"/>
    </contour>
    <contour>
      <point x="192" y="0" type="curve"/>
      <point x="230" y="0" type="line"/>
      <point x="238" y="0" type="line"/>
      <point x="184" y="74"/>
      <point x="147" y="167"/>
      <point x="147" y="304" type="curve" smooth="yes"/>
      <point x="147" y="520" type="line" smooth="yes"/>
      <point x="147" y="670"/>
      <point x="193" y="743"/>
      <point x="254" y="797" type="curve"/>
      <point x="241" y="829" type="line"/>
      <point x="168" y="773"/>
      <point x="110" y="685"/>
      <point x="110" y="520" type="curve" smooth="yes"/>
      <point x="110" y="304" type="line" smooth="yes"/>
      <point x="110" y="155"/>
      <point x="153" y="66"/>
    </contour>
    <contour>
      <point x="579" y="0" type="line"/>
      <point x="618" y="66"/>
      <point x="661" y="155"/>
      <point x="661" y="302" type="curve" smooth="yes"/>
      <point x="661" y="520" type="line" smooth="yes"/>
      <point x="661" y="673"/>
      <point x="614" y="769"/>
      <point x="533" y="829" type="curve"/>
      <point x="520" y="797" type="line"/>
      <point x="583" y="743"/>
      <point x="624" y="666"/>
      <point x="624" y="520" type="curve" smooth="yes"/>
      <point x="624" y="304" type="line" smooth="yes"/>
      <point x="624" y="166"/>
      <point x="587" y="74"/>
      <point x="533" y="0" type="curve"/>
      <point x="539" y="0" type="line"/>
    </contour>
    <contour>
      <point x="23" y="1179" type="line"/>
      <point x="734" y="1179" type="line"/>
      <point x="734" y="1213" type="line"/>
      <point x="23" y="1213" type="line"/>
    </contour>
    <component base="_cap.shiro_left"/>
    <component base="_cap.shiro_right" xOffset="579"/>
  </outline>
</glyph>
<glyph name="Va.gm" format="2">
  <advance width="625"/>
  <unicode hex="0A35"/>
  <anchor x="700" y="100" name="bottom"/>
  <anchor x="723" y="100" name="bottom1"/>
  <anchor x="555" y="1200" name="top"/>
  <outline>
    <contour>
      <point x="289" y="411" type="curve"/>
      <point x="511" y="411" type="line"/>
      <point x="511" y="445" type="line"/>
      <point x="289" y="445" type="line" smooth="yes"/>
      <point x="167" y="445"/>
      <point x="104" y="515"/>
      <point x="104" y="650" type="curve" smooth="yes"/>
      <point x="104" y="766"/>
      <point x="170" y="827"/>
      <point x="297" y="827" type="curve" smooth="yes"/>
      <point x="511" y="827" type="line"/>
      <point x="511" y="1196" type="line"/>
      <point x="474" y="1196" type="line"/>
      <point x="474" y="861" type="line"/>
      <point x="297" y="861" type="line" smooth="yes"/>
      <point x="147" y="861"/>
      <point x="66" y="787"/>
      <point x="66" y="650" type="curve" smooth="yes"/>
      <point x="66" y="495"/>
      <point x="144" y="411"/>
    </contour>
    <contour>
      <point x="493" y="-15" type="curve" smooth="yes"/>
      <point x="501" y="-15"/>
      <point x="521" y="-14"/>
      <point x="547" y="-12" type="curve"/>
      <point x="552" y="24" type="line"/>
      <point x="528" y="21"/>
      <point x="508" y="20"/>
      <point x="493" y="20" type="curve" smooth="yes"/>
      <point x="332" y="20"/>
      <point x="252" y="139"/>
      <point x="242" y="431" type="curve"/>
      <point x="204" y="431" type="line"/>
      <point x="219" y="121"/>
      <point x="305" y="-15"/>
    </contour>
    <contour>
      <point x="18" y="1179" type="line"/>
      <point x="493" y="1179" type="line"/>
      <point x="495" y="1179" type="line"/>
      <point x="610" y="1179" type="line"/>
      <point x="610" y="1213" type="line"/>
      <point x="18" y="1213" type="line"/>
    </contour>
    <component base="_cap.shiro_left"/>
    <component base="_cap.shiro_right" xOffset="433"/>
  </outline>
</glyph>
<glyph name="Sha.gm" format="2">
  <advance width="695"/>
  <unicode hex="0A36"/>
  <anchor x="797" y="100" name="bottom"/>
  <anchor x="709" y="100" name="bottom1"/>
  <anchor x="597" y="1200" name="top"/>
  <outline>
    <contour>
      <point x="124" y="115" type="curve"/>
      <point x="161" y="115" type="line"/>
      <point x="173" y="241"/>
      <point x="185" y="377"/>
      <point x="185" y="545" type="curve"/>
      <point x="185" y="729"/>
      <point x="180" y="943"/>
      <point x="162" y="1213" type="curve"/>
      <point x="28" y="1213" type="line"/>
      <point x="28" y="1179" type="line"/>
      <point x="127" y="1179" type="line"/>
      <point x="143" y="919"/>
      <point x="148" y="718"/>
      <point x="148" y="543" type="curve"/>
      <point x="148" y="387"/>
      <point x="136" y="241"/>
    </contour>
    <contour>
      <point x="166" y="479" type="line"/>
      <point x="534" y="479" type="line"/>
      <point x="534" y="513" type="line"/>
      <point x="166" y="513" type="line"/>
    </contour>
    <contour>
      <point x="516" y="0" type="line"/>
      <point x="553" y="0" type="line"/>
      <point x="553" y="1179" type="line"/>
      <point x="665" y="1179" type="line"/>
      <point x="665" y="1213" type="line"/>
      <point x="516" y="1213" type="line"/>
      <point x="516" y="501" type="line"/>
      <point x="516" y="498" type="line"/>
    </contour>
    <contour>
      <point x="148" y="1179" type="line"/>
      <point x="525" y="1179" type="line"/>
      <point x="525" y="1213" type="line"/>
      <point x="148" y="1213" type="line"/>
    </contour>
    <contour>
      <point x="347" y="131" type="curve" smooth="yes"/>
      <point x="373" y="131"/>
      <point x="384" y="150"/>
      <point x="384" y="190" type="curve" smooth="yes"/>
      <point x="384" y="206" type="line" smooth="yes"/>
      <point x="384" y="246"/>
      <point x="373" y="264"/>
      <point x="347" y="264" type="curve" smooth="yes"/>
      <point x="321" y="264"/>
      <point x="310" y="246"/>
      <point x="310" y="206" type="curve" smooth="yes"/>
      <point x="310" y="190" type="line" smooth="yes"/>
      <point x="310" y="150"/>
      <point x="321" y="131"/>
    </contour>
    <component base="_cap.shiro_right" xOffset="503"/>
    <component base="_cap.shiro_left"/>
  </outline>
</glyph>
<glyph name="Sa.gm" format="2">
  <advance width="697"/>
  <unicode hex="0A38"/>
  <anchor x="797" y="100" name="bottom"/>
  <anchor x="710" y="100" name="bottom1"/>
  <anchor x="597" y="1200" name="top"/>
  <outline>
    <contour>
      <point x="124" y="115" type="curve"/>
      <point x="161" y="115" type="line"/>
      <point x="174" y="246"/>
      <point x="185" y="377"/>
      <point x="185" y="545" type="curve"/>
      <point x="185" y="729"/>
      <point x="180" y="943"/>
      <point x="162" y="1213" type="curve"/>
      <point x="28" y="1213" type="line"/>
      <point x="28" y="1179" type="line"/>
      <point x="127" y="1179" type="line"/>
      <point x="143" y="919"/>
      <point x="148" y="718"/>
      <point x="148" y="543" type="curve"/>
      <point x="148" y="387"/>
      <point x="136" y="241"/>
    </contour>
    <contour>
      <point x="166" y="479" type="line"/>
      <point x="537" y="479" type="line"/>
      <point x="537" y="513" type="line"/>
      <point x="166" y="513" type="line"/>
    </contour>
    <contour>
      <point x="71" y="1179" type="line"/>
      <point x="628" y="1179" type="line"/>
      <point x="628" y="1213" type="line"/>
      <point x="71" y="1213" type="line"/>
    </contour>
    <component base="_cap.shiro_left"/>
    <component base="_danda" xOffset="330"/>
  </outline>
</glyph>
<glyph name="Ha.gm" format="2">
  <advance width="665"/>
  <unicode hex="0A39"/>
  <anchor x="670" y="100" name="bottom"/>
  <anchor x="687" y="100" name="bottom1"/>
  <anchor x="567" y="1200" name="top"/>
  <outline>
    <contour>
      <point x="335" y="-18" type="curve" smooth="yes"/>
      <point x="467" y="-18"/>
      <point x="523" y="70"/>
      <point x="523" y="237" type="curve" smooth="yes"/>
      <point x="523" y="1196" type="line"/>
      <point x="486" y="1196" type="line"/>
      <point x="486" y="239" type="line" smooth="yes"/>
      <point x="486" y="92"/>
      <point x="445" y="17"/>
      <point x="335" y="17" type="curve" smooth="yes"/>
      <point x="201" y="17"/>
      <point x="140" y="160"/>
      <point x="140" y="364" type="curve" smooth="yes"/>
      <point x="140" y="541" type="line" smooth="yes"/>
      <point x="140" y="714"/>
      <point x="191" y="788"/>
      <point x="314" y="788" type="curve" smooth="yes"/>
      <point x="342" y="788" type="line"/>
      <point x="352" y="823" type="line"/>
      <point x="313" y="823" type="line" smooth="yes"/>
      <point x="169" y="823"/>
      <point x="103" y="734"/>
      <point x="103" y="541" type="curve" smooth="yes"/>
      <point x="103" y="364" type="line" smooth="yes"/>
      <point x="103" y="138"/>
      <point x="173" y="-18"/>
    </contour>
    <contour>
      <point x="18" y="1179" type="line"/>
      <point x="640" y="1179" type="line"/>
      <point x="640" y="1213" type="line"/>
      <point x="18" y="1213" type="line"/>
    </contour>
    <component base="_cap.shiro_left"/>
    <component base="_cap.shiro_right" xOffset="473"/>
  </outline>
</glyph>
<glyph name="Nukta.gm" format="2">
  <unicode hex="0A3C"/>
  <outline>
    <contour>
      <point x="-397" y="-194" type="curve" smooth="yes"/>
      <point x="-371" y="-194"/>
      <point x="-360" y="-175"/>
      <point x="-360" y="-135" type="curve" smooth="yes"/>
      <point x="-360" y="-119" type="line" smooth="yes"/>
      <point x="-360" y="-79"/>
      <point x="-371" y="-61"/>
      <point x="-397" y="-61" type="curve" smooth="yes"/>
      <point x="-423" y="-61"/>
      <point x="-434" y="-79"/>
      <point x="-434" y="-119" type="curve" smooth="yes"/>
      <point x="-434" y="-135" type="line" smooth="yes"/>
      <point x="-434" y="-175"/>
      <point x="-423" y="-194"/>
    </contour>
  </outline>
</glyph>
<glyph name="MatraU.gm" format="2">
  <unicode hex="0A41"/>
  <anchor x="600" y="100" name="_bottom1"/>
  <outline>
    <contour>
      <point x="235" y="-245" type="curve" smooth="yes"/>
      <point x="321" y="-245"/>
      <point x="389" y="-222"/>
      <point x="430" y="-194" type="curve"/>
      <point x="432" y="-158" type="line"/>
      <point x="391" y="-186"/>
      <point x="323" y="-210"/>
      <point x="237" y="-210" type="curve" smooth="yes"/>
      <point x="146" y="-210"/>
      <point x="75" y="-186"/>
      <point x="32" y="-158" type="curve"/>
      <point x="34" y="-194" type="line"/>
      <point x="77" y="-222"/>
      <point x="148" y="-245"/>
    </contour>
  </outline>
</glyph>
<glyph name="MatraUu.gm" format="2">
  <unicode hex="0A42"/>
  <anchor x="600" y="100" name="_bottom1"/>
  <outline>
    <contour>
      <point x="235" y="-182" type="curve" smooth="yes"/>
      <point x="320" y="-182"/>
      <point x="389" y="-161"/>
      <point x="429" y="-136" type="curve"/>
      <point x="431" y="-101" type="line"/>
      <point x="391" y="-126"/>
      <point x="322" y="-148"/>
      <point x="237" y="-148" type="curve" smooth="yes"/>
      <point x="147" y="-148"/>
      <point x="75" y="-126"/>
      <point x="33" y="-101" type="curve"/>
      <point x="35" y="-136" type="line"/>
      <point x="77" y="-161"/>
      <point x="148" y="-182"/>
    </contour>
    <contour>
      <point x="235" y="-349" type="curve" smooth="yes"/>
      <point x="320" y="-349"/>
      <point x="389" y="-328"/>
      <point x="429" y="-303" type="curve"/>
      <point x="431" y="-268" type="line"/>
      <point x="391" y="-293"/>
      <point x="322" y="-315"/>
      <point x="237" y="-315" type="curve" smooth="yes"/>
      <point x="147" y="-315"/>
      <point x="75" y="-293"/>
      <point x="33" y="-268" type="curve"/>
      <point x="35" y="-303" type="line"/>
      <point x="77" y="-328"/>
      <point x="148" y="-349"/>
    </contour>
  </outline>
</glyph>
<glyph name="MatraEe.gm" format="2">
  <unicode hex="0A47"/>
  <anchor x="400" y="1200" name="_top"/>
  <anchor x="708" y="1353" name="top1"/>
  <outline>
    <contour>
      <point x="321" y="1200" type="line"/>
      <point x="356" y="1200" type="line"/>
      <point x="299" y="1553"/>
      <point x="205" y="1646"/>
      <point x="7" y="1646" type="curve" smooth="yes"/>
      <point x="-18" y="1646"/>
      <point x="-37" y="1644"/>
      <point x="-71" y="1640" type="curve"/>
      <point x="-74" y="1607" type="line"/>
      <point x="-44" y="1611"/>
      <point x="-18" y="1613"/>
      <point x="7" y="1613" type="curve" smooth="yes"/>
      <point x="181" y="1613"/>
      <point x="266" y="1530"/>
      <point x="318" y="1218" type="curve" smooth="yes"/>
    </contour>
  </outline>
</glyph>
<glyph name="MatraAi.gm" format="2">
  <unicode hex="0A48"/>
  <anchor x="400" y="1200" name="_top"/>
  <anchor x="744" y="1401" name="top1"/>
  <outline>
    <contour>
      <point x="323" y="1206" type="line"/>
      <point x="356" y="1206" type="line"/>
      <point x="353" y="1304" type="line" smooth="yes"/>
      <point x="343" y="1631"/>
      <point x="245" y="1720"/>
      <point x="39" y="1720" type="curve" smooth="yes"/>
      <point x="-1" y="1720"/>
      <point x="-35" y="1715"/>
      <point x="-81" y="1706" type="curve"/>
      <point x="-86" y="1674" type="line"/>
      <point x="-36" y="1683"/>
      <point x="6" y="1687"/>
      <point x="45" y="1687" type="curve" smooth="yes"/>
      <point x="232" y="1687"/>
      <point x="313" y="1583"/>
      <point x="327" y="1329" type="curve"/>
      <point x="318" y="1327" type="line"/>
    </contour>
    <contour>
      <point x="319" y="1206" type="line"/>
      <point x="341" y="1206" type="line"/>
      <point x="340" y="1235" type="line" smooth="yes"/>
      <point x="335" y="1391"/>
      <point x="253" y="1465"/>
      <point x="72" y="1465" type="curve" smooth="yes"/>
      <point x="41" y="1465"/>
      <point x="-5" y="1460"/>
      <point x="-40" y="1455" type="curve"/>
      <point x="-45" y="1422" type="line"/>
      <point x="-7" y="1427"/>
      <point x="33" y="1432"/>
      <point x="79" y="1432" type="curve" smooth="yes"/>
      <point x="240" y="1432"/>
      <point x="319" y="1360"/>
      <point x="319" y="1218" type="curve" smooth="yes"/>
    </contour>
  </outline>
</glyph>
<glyph name="MatraOo.gm" format="2">
  <unicode hex="0A4B"/>
  <anchor x="400" y="1200" name="_top"/>
  <anchor x="704" y="1372" name="top1"/>
  <outline>
    <contour>
      <point x="319" y="1206" type="curve"/>
      <point x="356" y="1206" type="line"/>
      <point x="356" y="1220"/>
      <point x="356" y="1232"/>
      <point x="356" y="1246" type="curve" smooth="yes"/>
      <point x="356" y="1396"/>
      <point x="302" y="1453"/>
      <point x="164" y="1481" type="curve" smooth="yes"/>
      <point x="90" y="1496" type="line" smooth="yes"/>
      <point x="-5" y="1515"/>
      <point x="-58" y="1554"/>
      <point x="-58" y="1704" type="curve"/>
      <point x="-87" y="1704" type="line"/>
      <point x="-87" y="1676" type="line" smooth="yes"/>
      <point x="-87" y="1529"/>
      <point x="-25" y="1484"/>
      <point x="90" y="1461" type="curve" smooth="yes"/>
      <point x="164" y="1446" type="line" smooth="yes"/>
      <point x="287" y="1421"/>
      <point x="319" y="1368"/>
    </contour>
  </outline>
</glyph>
<glyph name="MatraAu.gm" format="2">
  <unicode hex="0A4C"/>
  <anchor x="400" y="1200" name="_top"/>
  <anchor x="843" y="1437" name="top1"/>
  <outline>
    <contour>
      <point x="228" y="1345" type="curve"/>
      <point x="259" y="1345" type="line"/>
      <point x="241" y="1380"/>
      <point x="227" y="1416"/>
      <point x="227" y="1464" type="curve"/>
      <point x="227" y="1527"/>
      <point x="271" y="1583"/>
      <point x="341" y="1583" type="curve" smooth="yes"/>
      <point x="412" y="1583"/>
      <point x="451" y="1530"/>
      <point x="451" y="1464" type="curve" smooth="yes"/>
      <point x="451" y="1416"/>
      <point x="439" y="1380"/>
      <point x="419" y="1345" type="curve"/>
      <point x="450" y="1345" type="line"/>
      <point x="474" y="1380"/>
      <point x="487" y="1418"/>
      <point x="487" y="1467" type="curve" smooth="yes"/>
      <point x="487" y="1553"/>
      <point x="439" y="1618"/>
      <point x="341" y="1618" type="curve" smooth="yes"/>
      <point x="320" y="1618"/>
      <point x="299" y="1616"/>
      <point x="278" y="1606" type="curve"/>
      <point x="274" y="1602" type="line"/>
      <point x="227" y="1579"/>
      <point x="191" y="1531"/>
      <point x="191" y="1467" type="curve"/>
      <point x="191" y="1418"/>
      <point x="206" y="1380"/>
    </contour>
    <contour>
      <point x="178" y="1582" type="curve" smooth="yes"/>
      <point x="209" y="1582"/>
      <point x="231" y="1586"/>
      <point x="252" y="1592" type="curve"/>
      <point x="254" y="1588" type="line"/>
      <point x="341" y="1585" type="line"/>
      <point x="341" y="1618" type="line"/>
      <point x="189" y="1615" type="line" smooth="yes"/>
      <point x="80" y="1613"/>
      <point x="29" y="1647"/>
      <point x="29" y="1765" type="curve"/>
      <point x="-1" y="1765" type="line"/>
      <point x="-1" y="1752" type="line" smooth="yes"/>
      <point x="-1" y="1622"/>
      <point x="66" y="1582"/>
    </contour>
  </outline>
</glyph>
<glyph name="Udaat.gm" format="2">
  <unicode hex="0A51"/>
  <anchor x="600" y="100" name="_bottom"/>
  <anchor x="600" y="280" name="bottom1"/>
  <outline>
    <contour>
      <point x="569" y="-386" type="curve"/>
      <point x="569" y="-353" type="line"/>
      <point x="437" y="-353"/>
      <point x="356" y="-281"/>
      <point x="356" y="-117" type="curve"/>
      <point x="319" y="-117" type="line"/>
      <point x="319" y="-298"/>
      <point x="420" y="-386"/>
    </contour>
  </outline>
</glyph>
<glyph name="Za.gm" format="2">
  <advance width="714"/>
  <unicode hex="0A5B"/>
  <anchor x="814" y="100" name="bottom"/>
  <anchor x="722" y="100" name="bottom1"/>
  <anchor x="614" y="1200" name="top"/>
  <outline>
    <contour>
      <point x="123" y="0" type="curve"/>
      <point x="160" y="0" type="line"/>
      <point x="174" y="183"/>
      <point x="183" y="404"/>
      <point x="183" y="595" type="curve" smooth="yes"/>
      <point x="183" y="725"/>
      <point x="177" y="852"/>
      <point x="165" y="964" type="curve"/>
      <point x="129" y="948" type="line"/>
      <point x="140" y="846"/>
      <point x="146" y="723"/>
      <point x="146" y="596" type="curve" smooth="yes"/>
      <point x="146" y="404"/>
      <point x="137" y="183"/>
    </contour>
    <contour>
      <point x="169" y="645" type="line"/>
      <point x="552" y="645" type="line"/>
      <point x="552" y="679" type="line"/>
      <point x="169" y="679" type="line"/>
    </contour>
    <contour>
      <point x="18" y="1179" type="line"/>
      <point x="552" y="1179" type="line"/>
      <point x="552" y="1213" type="line"/>
      <point x="18" y="1213" type="line"/>
    </contour>
    <contour>
      <point x="359" y="208" type="curve" smooth="yes"/>
      <point x="385" y="208"/>
      <point x="396" y="227"/>
      <point x="396" y="267" type="curve" smooth="yes"/>
      <point x="396" y="283" type="line" smooth="yes"/>
      <point x="396" y="323"/>
      <point x="385" y="341"/>
      <point x="359" y="341" type="curve" smooth="yes"/>
      <point x="333" y="341"/>
      <point x="322" y="323"/>
      <point x="322" y="283" type="curve" smooth="yes"/>
      <point x="322" y="267" type="line" smooth="yes"/>
      <point x="322" y="227"/>
      <point x="333" y="208"/>
    </contour>
    <component base="_danda" xOffset="347"/>
    <component base="_cap.shiro_left"/>
  </outline>
</glyph>
<glyph name="Rra.gm" format="2">
  <advance width="550"/>
  <unicode hex="0A5C"/>
  <anchor x="580" y="30" name="bottom"/>
  <anchor x="622" y="0" name="bottom1"/>
  <anchor x="478" y="1200" name="top"/>
  <outline>
    <contour>
      <point x="230" y="76" type="curve" smooth="yes"/>
      <point x="377" y="76"/>
      <point x="448" y="171"/>
      <point x="448" y="351" type="curve" smooth="yes"/>
      <point x="448" y="438" type="line" smooth="yes"/>
      <point x="448" y="603"/>
      <point x="406" y="705"/>
      <point x="262" y="705" type="curve"/>
      <point x="288" y="684" type="line"/>
      <point x="288" y="695" type="line"/>
      <point x="387" y="695"/>
      <point x="434" y="796"/>
      <point x="434" y="926" type="curve" smooth="yes"/>
      <point x="434" y="1197" type="line"/>
      <point x="397" y="1197" type="line"/>
      <point x="397" y="926" type="line" smooth="yes"/>
      <point x="397" y="816"/>
      <point x="376" y="715"/>
      <point x="253" y="715" type="curve" smooth="yes"/>
      <point x="86" y="715" type="line"/>
      <point x="86" y="681" type="line"/>
      <point x="256" y="681" type="line" smooth="yes"/>
      <point x="386" y="681"/>
      <point x="411" y="575"/>
      <point x="411" y="436" type="curve"/>
      <point x="411" y="355" type="line" smooth="yes"/>
      <point x="411" y="193"/>
      <point x="355" y="111"/>
      <point x="230" y="111" type="curve" smooth="yes"/>
      <point x="157" y="111"/>
      <point x="89" y="141"/>
      <point x="45" y="194" type="curve"/>
      <point x="51" y="142" type="line"/>
      <point x="87" y="101"/>
      <point x="155" y="76"/>
    </contour>
    <contour>
      <point x="167" y="-162" type="line"/>
      <point x="207" y="-162" type="line"/>
      <point x="85" y="142" type="line"/>
      <point x="51" y="142" type="line"/>
    </contour>
    <contour>
      <point x="469" y="-162" type="line"/>
      <point x="510" y="-162" type="line"/>
      <point x="374" y="135" type="line"/>
      <point x="348" y="114" type="line"/>
    </contour>
    <contour>
      <point x="18" y="1179" type="line"/>
      <point x="523" y="1179" type="line"/>
      <point x="523" y="1213" type="line"/>
      <point x="18" y="1213" type="line"/>
    </contour>
    <component base="_cap.shiro_left"/>
    <component base="_cap.shiro_right" xOffset="358"/>
  </outline>
</glyph>
<glyph name="zero.gm" format="2">
  <advance width="535"/>
  <unicode hex="0A66"/>
  <outline>
    <contour>
      <point x="277" y="182" type="curve" smooth="yes"/>
      <point x="399" y="182"/>
      <point x="466" y="269"/>
      <point x="466" y="421" type="curve" smooth="yes"/>
      <point x="466" y="841" type="line" smooth="yes"/>
      <point x="466" y="994"/>
      <point x="399" y="1080"/>
      <point x="277" y="1080" type="curve" smooth="yes"/>
      <point x="155" y="1080"/>
      <point x="88" y="994"/>
      <point x="88" y="841" type="curve" smooth="yes"/>
      <point x="88" y="421" type="line" smooth="yes"/>
      <point x="88" y="269"/>
      <point x="155" y="182"/>
    </contour>
    <contour>
      <point x="277" y="217" type="curve" smooth="yes"/>
      <point x="177" y="217"/>
      <point x="125" y="286"/>
      <point x="125" y="421" type="curve" smooth="yes"/>
      <point x="125" y="841" type="line" smooth="yes"/>
      <point x="125" y="976"/>
      <point x="177" y="1045"/>
      <point x="277" y="1045" type="curve" smooth="yes"/>
      <point x="367" y="1045"/>
      <point x="429" y="976"/>
      <point x="429" y="841" type="curve" smooth="yes"/>
      <point x="429" y="421" type="line" smooth="yes"/>
      <point x="429" y="286"/>
      <point x="367" y="217"/>
    </contour>
  </outline>
</glyph>
<glyph name="one.gm" format="2">
  <advance width="583"/>
  <unicode hex="0A67"/>
  <outline>
    <contour>
      <point x="430" y="0" type="line"/>
      <point x="467" y="0" type="line"/>
      <point x="467" y="978" type="line" smooth="yes"/>
      <point x="467" y="1146"/>
      <point x="406" y="1231"/>
      <point x="278" y="1231" type="curve" smooth="yes"/>
      <point x="149" y="1231"/>
      <point x="89" y="1146"/>
      <point x="89" y="978" type="curve" smooth="yes"/>
      <point x="89" y="767" type="line" smooth="yes"/>
      <point x="89" y="605"/>
      <point x="158" y="526"/>
      <point x="285" y="526" type="curve" smooth="yes"/>
      <point x="339" y="526"/>
      <point x="383" y="542"/>
      <point x="412" y="567" type="curve"/>
      <point x="430" y="608" type="line"/>
      <point x="444" y="608" type="line"/>
      <point x="430" y="624" type="line"/>
      <point x="396" y="582"/>
      <point x="341" y="561"/>
      <point x="285" y="561" type="curve" smooth="yes"/>
      <point x="179" y="561"/>
      <point x="126" y="627"/>
      <point x="126" y="767" type="curve" smooth="yes"/>
      <point x="126" y="978" type="line" smooth="yes"/>
      <point x="126" y="1126"/>
      <point x="173" y="1196"/>
      <point x="278" y="1196" type="curve" smooth="yes"/>
      <point x="382" y="1196"/>
      <point x="430" y="1126"/>
      <point x="430" y="978" type="curve" smooth="yes"/>
    </contour>
  </outline>
</glyph>
<glyph name="two.gm" format="2">
  <advance width="554"/>
  <unicode hex="0A68"/>
  <outline>
    <contour>
      <point x="243" y="405" type="curve" smooth="yes"/>
      <point x="383" y="405"/>
      <point x="466" y="495"/>
      <point x="466" y="666" type="curve" smooth="yes"/>
      <point x="466" y="968" type="line" smooth="yes"/>
      <point x="466" y="1141"/>
      <point x="396" y="1231"/>
      <point x="266" y="1231" type="curve" smooth="yes"/>
      <point x="199" y="1231"/>
      <point x="140" y="1206"/>
      <point x="93" y="1157" type="curve"/>
      <point x="93" y="1108" type="line"/>
      <point x="138" y="1166"/>
      <point x="198" y="1196"/>
      <point x="266" y="1196" type="curve" smooth="yes"/>
      <point x="376" y="1196"/>
      <point x="429" y="1119"/>
      <point x="429" y="968" type="curve" smooth="yes"/>
      <point x="429" y="666" type="line" smooth="yes"/>
      <point x="429" y="515"/>
      <point x="361" y="440"/>
      <point x="243" y="440" type="curve" smooth="yes"/>
      <point x="181" y="440"/>
      <point x="124" y="466"/>
      <point x="80" y="505" type="curve"/>
      <point x="85" y="461" type="line"/>
      <point x="120" y="433"/>
      <point x="177" y="405"/>
    </contour>
    <contour>
      <point x="375" y="0" type="line"/>
      <point x="420" y="0" type="line"/>
      <point x="338" y="148"/>
      <point x="258" y="289"/>
      <point x="184" y="422" type="curve"/>
      <point x="179" y="433" type="line"/>
      <point x="130" y="451" type="line"/>
    </contour>
  </outline>
</glyph>
<glyph name="three.gm" format="2">
  <advance width="564"/>
  <unicode hex="0A69"/>
  <outline>
    <contour>
      <point x="260" y="112" type="curve" smooth="yes"/>
      <point x="391" y="112"/>
      <point x="470" y="202"/>
      <point x="470" y="356" type="curve" smooth="yes"/>
      <point x="470" y="450" type="line" smooth="yes"/>
      <point x="470" y="575"/>
      <point x="414" y="679"/>
      <point x="254" y="679" type="curve"/>
      <point x="291" y="659" type="line"/>
      <point x="291" y="671" type="line"/>
      <point x="406" y="671"/>
      <point x="459" y="768"/>
      <point x="459" y="891" type="curve" smooth="yes"/>
      <point x="459" y="968" type="line" smooth="yes"/>
      <point x="459" y="1141"/>
      <point x="390" y="1231"/>
      <point x="257" y="1231" type="curve" smooth="yes"/>
      <point x="193" y="1231"/>
      <point x="135" y="1206"/>
      <point x="88" y="1157" type="curve"/>
      <point x="88" y="1108" type="line"/>
      <point x="133" y="1166"/>
      <point x="191" y="1196"/>
      <point x="257" y="1196" type="curve" smooth="yes"/>
      <point x="370" y="1196"/>
      <point x="422" y="1119"/>
      <point x="422" y="968" type="curve" smooth="yes"/>
      <point x="422" y="890" type="line" smooth="yes"/>
      <point x="422" y="782"/>
      <point x="381" y="689"/>
      <point x="243" y="689" type="curve" smooth="yes"/>
      <point x="135" y="689" type="line"/>
      <point x="135" y="655" type="line"/>
      <point x="249" y="655" type="line" smooth="yes"/>
      <point x="381" y="655"/>
      <point x="433" y="573"/>
      <point x="433" y="452" type="curve" smooth="yes"/>
      <point x="433" y="356" type="line" smooth="yes"/>
      <point x="433" y="223"/>
      <point x="368" y="147"/>
      <point x="260" y="147" type="curve" smooth="yes"/>
      <point x="171" y="147"/>
      <point x="102" y="187"/>
      <point x="69" y="230" type="curve"/>
      <point x="74" y="178" type="line"/>
      <point x="105" y="151"/>
      <point x="174" y="112"/>
    </contour>
    <contour>
      <point x="292" y="-124" type="line"/>
      <point x="339" y="-124" type="line"/>
      <point x="265" y="-31"/>
      <point x="229" y="55"/>
      <point x="155" y="148" type="curve"/>
      <point x="148" y="150" type="line"/>
      <point x="111" y="161" type="line"/>
    </contour>
  </outline>
</glyph>
<glyph name="four.gm" format="2">
  <advance width="652"/>
  <unicode hex="0A6A"/>
  <outline>
    <contour>
      <point x="326" y="-10" type="curve" smooth="yes"/>
      <point x="474" y="-10"/>
      <point x="541" y="72"/>
      <point x="541" y="229" type="curve" smooth="yes"/>
      <point x="541" y="399" type="line" smooth="yes"/>
      <point x="541" y="535"/>
      <point x="500" y="606"/>
      <point x="406" y="631" type="curve"/>
      <point x="406" y="633" type="line"/>
      <point x="507" y="654"/>
      <point x="547" y="732"/>
      <point x="547" y="853" type="curve" smooth="yes"/>
      <point x="547" y="973"/>
      <point x="537" y="1097"/>
      <point x="517" y="1213" type="curve"/>
      <point x="480" y="1213" type="line"/>
      <point x="500" y="1097"/>
      <point x="510" y="973"/>
      <point x="510" y="853" type="curve" smooth="yes"/>
      <point x="510" y="730"/>
      <point x="462" y="650"/>
      <point x="326" y="650" type="curve" smooth="yes"/>
      <point x="201" y="650"/>
      <point x="142" y="730"/>
      <point x="142" y="853" type="curve" smooth="yes"/>
      <point x="142" y="973"/>
      <point x="152" y="1097"/>
      <point x="172" y="1213" type="curve"/>
      <point x="135" y="1213" type="line"/>
      <point x="115" y="1097"/>
      <point x="105" y="973"/>
      <point x="105" y="853" type="curve" smooth="yes"/>
      <point x="105" y="732"/>
      <point x="158" y="654"/>
      <point x="239" y="633" type="curve"/>
      <point x="239" y="631" type="line"/>
      <point x="150" y="606"/>
      <point x="111" y="535"/>
      <point x="111" y="399" type="curve" smooth="yes"/>
      <point x="111" y="229" type="line" smooth="yes"/>
      <point x="111" y="72"/>
      <point x="184" y="-10"/>
    </contour>
    <contour>
      <point x="326" y="25" type="curve" smooth="yes"/>
      <point x="209" y="25"/>
      <point x="148" y="95"/>
      <point x="148" y="229" type="curve" smooth="yes"/>
      <point x="148" y="394" type="line" smooth="yes"/>
      <point x="148" y="521"/>
      <point x="185" y="615"/>
      <point x="326" y="615" type="curve" smooth="yes"/>
      <point x="469" y="615"/>
      <point x="504" y="521"/>
      <point x="504" y="394" type="curve" smooth="yes"/>
      <point x="504" y="229" type="line" smooth="yes"/>
      <point x="504" y="95"/>
      <point x="450" y="25"/>
    </contour>
  </outline>
</glyph>
<glyph name="five.gm" format="2">
  <advance width="674"/>
  <unicode hex="0A6B"/>
  <outline>
    <contour>
      <point x="326" y="230" type="curve" smooth="yes"/>
      <point x="412" y="230"/>
      <point x="479" y="264"/>
      <point x="503" y="283" type="curve"/>
      <point x="521" y="325" type="line"/>
      <point x="537" y="325" type="line"/>
      <point x="529" y="346" type="line"/>
      <point x="484" y="296"/>
      <point x="408" y="265"/>
      <point x="326" y="265" type="curve" smooth="yes"/>
      <point x="234" y="265"/>
      <point x="165" y="306"/>
      <point x="127" y="357" type="curve"/>
      <point x="166" y="534"/>
      <point x="188" y="788"/>
      <point x="188" y="1009" type="curve" smooth="yes"/>
      <point x="188" y="1082"/>
      <point x="185" y="1152"/>
      <point x="180" y="1213" type="curve"/>
      <point x="143" y="1213" type="line"/>
      <point x="148" y="1150"/>
      <point x="151" y="1079"/>
      <point x="151" y="1004" type="curve" smooth="yes"/>
      <point x="151" y="782"/>
      <point x="130" y="528"/>
      <point x="85" y="349" type="curve"/>
      <point x="139" y="276"/>
      <point x="216" y="230"/>
    </contour>
    <contour>
      <point x="521" y="0" type="line"/>
      <point x="558" y="0" type="line"/>
      <point x="558" y="1213" type="line"/>
      <point x="521" y="1213" type="line"/>
    </contour>
  </outline>
</glyph>
<glyph name="six.gm" format="2">
  <advance width="564"/>
  <unicode hex="0A6C"/>
  <outline>
    <contour>
      <point x="314" y="-10" type="curve" smooth="yes"/>
      <point x="395" y="-10"/>
      <point x="461" y="29"/>
      <point x="490" y="56" type="curve"/>
      <point x="495" y="99" type="line"/>
      <point x="464" y="67"/>
      <point x="398" y="25"/>
      <point x="314" y="25" type="curve" smooth="yes"/>
      <point x="201" y="25"/>
      <point x="131" y="101"/>
      <point x="131" y="234" type="curve" smooth="yes"/>
      <point x="131" y="380" type="line" smooth="yes"/>
      <point x="131" y="501"/>
      <point x="180" y="583"/>
      <point x="305" y="583" type="curve" smooth="yes"/>
      <point x="429" y="583" type="line"/>
      <point x="429" y="617" type="line"/>
      <point x="311" y="617" type="line" smooth="yes"/>
      <point x="173" y="617"/>
      <point x="132" y="706"/>
      <point x="132" y="836" type="curve" smooth="yes"/>
      <point x="132" y="918" type="line" smooth="yes"/>
      <point x="132" y="1069"/>
      <point x="190" y="1146"/>
      <point x="298" y="1146" type="curve" smooth="yes"/>
      <point x="363" y="1146"/>
      <point x="421" y="1116"/>
      <point x="466" y="1058" type="curve"/>
      <point x="466" y="1107" type="line"/>
      <point x="419" y="1156"/>
      <point x="376" y="1181"/>
      <point x="298" y="1181" type="curve" smooth="yes"/>
      <point x="170" y="1181"/>
      <point x="95" y="1091"/>
      <point x="95" y="918" type="curve" smooth="yes"/>
      <point x="95" y="844" type="line" smooth="yes"/>
      <point x="95" y="692"/>
      <point x="148" y="599"/>
      <point x="263" y="599" type="curve"/>
      <point x="263" y="587" type="line"/>
      <point x="300" y="607" type="line"/>
      <point x="148" y="607"/>
      <point x="94" y="503"/>
      <point x="94" y="378" type="curve" smooth="yes"/>
      <point x="94" y="234" type="line" smooth="yes"/>
      <point x="94" y="80"/>
      <point x="177" y="-10"/>
    </contour>
    <contour>
      <point x="473" y="1441" type="curve"/>
      <point x="468" y="1475" type="line"/>
      <point x="450" y="1478"/>
      <point x="432" y="1480"/>
      <point x="408" y="1480" type="curve" smooth="yes"/>
      <point x="305" y="1480"/>
      <point x="240" y="1420"/>
      <point x="240" y="1332" type="curve" smooth="yes"/>
      <point x="240" y="1236"/>
      <point x="304" y="1190"/>
      <point x="363" y="1157" type="curve"/>
      <point x="368" y="1158" type="line"/>
      <point x="392" y="1163" type="line"/>
      <point x="326" y="1199"/>
      <point x="277" y="1249"/>
      <point x="277" y="1332" type="curve" smooth="yes"/>
      <point x="277" y="1404"/>
      <point x="324" y="1446"/>
      <point x="410" y="1446" type="curve" smooth="yes"/>
      <point x="429" y="1446"/>
      <point x="455" y="1445"/>
    </contour>
  </outline>
</glyph>
<glyph name="seven.gm" format="2">
  <advance width="623"/>
  <unicode hex="0A6D"/>
  <outline>
    <contour>
      <point x="88" y="0" type="line"/>
      <point x="93" y="0" type="line" smooth="yes"/>
      <point x="369" y="0"/>
      <point x="507" y="153"/>
      <point x="507" y="432" type="curve" smooth="yes"/>
      <point x="507" y="952" type="line" smooth="yes"/>
      <point x="507" y="1139"/>
      <point x="437" y="1231"/>
      <point x="299" y="1231" type="curve" smooth="yes"/>
      <point x="159" y="1231"/>
      <point x="89" y="1139"/>
      <point x="89" y="952" type="curve" smooth="yes"/>
      <point x="89" y="681" type="line"/>
      <point x="126" y="681" type="line"/>
      <point x="126" y="952" type="line" smooth="yes"/>
      <point x="126" y="1119"/>
      <point x="181" y="1196"/>
      <point x="299" y="1196" type="curve" smooth="yes"/>
      <point x="416" y="1196"/>
      <point x="470" y="1119"/>
      <point x="470" y="952" type="curve" smooth="yes"/>
      <point x="470" y="431" type="line" smooth="yes"/>
      <point x="470" y="164"/>
      <point x="342" y="34"/>
      <point x="84" y="34" type="curve" smooth="yes"/>
      <point x="78" y="34" type="line"/>
    </contour>
  </outline>
</glyph>
<glyph name="eight.gm" format="2">
  <advance width="587"/>
  <unicode hex="0A6E"/>
  <outline>
    <contour>
      <point x="363" y="-10" type="curve" smooth="yes"/>
      <point x="443" y="-10"/>
      <point x="502" y="22"/>
      <point x="531" y="56" type="curve"/>
      <point x="537" y="108" type="line"/>
      <point x="509" y="65"/>
      <point x="446" y="25"/>
      <point x="363" y="25" type="curve" smooth="yes"/>
      <point x="219" y="25"/>
      <point x="153" y="113"/>
      <point x="153" y="305" type="curve" smooth="yes"/>
      <point x="153" y="1223" type="line"/>
      <point x="116" y="1203" type="line"/>
      <point x="116" y="305" type="line" smooth="yes"/>
      <point x="116" y="93"/>
      <point x="197" y="-10"/>
    </contour>
    <contour>
      <point x="142" y="894" type="line"/>
      <point x="495" y="896" type="line"/>
      <point x="495" y="930" type="line"/>
      <point x="142" y="928" type="line"/>
    </contour>
  </outline>
</glyph>
<glyph name="nine.gm" format="2">
  <advance width="587"/>
  <unicode hex="0A6F"/>
  <outline>
    <contour>
      <point x="363" y="-10" type="curve" smooth="yes"/>
      <point x="443" y="-10"/>
      <point x="504" y="22"/>
      <point x="531" y="56" type="curve"/>
      <point x="537" y="108" type="line"/>
      <point x="509" y="65"/>
      <point x="446" y="25"/>
      <point x="363" y="25" type="curve" smooth="yes"/>
      <point x="219" y="25"/>
      <point x="153" y="113"/>
      <point x="153" y="305" type="curve" smooth="yes"/>
      <point x="153" y="1223" type="line"/>
      <point x="116" y="1203" type="line"/>
      <point x="116" y="305" type="line" smooth="yes"/>
      <point x="116" y="89"/>
      <point x="193" y="-10"/>
    </contour>
    <contour>
      <point x="142" y="893" type="line"/>
      <point x="497" y="895" type="line"/>
      <point x="497" y="929" type="line"/>
      <point x="142" y="927" type="line"/>
    </contour>
    <contour>
      <point x="464" y="913" type="line"/>
      <point x="497" y="929" type="line"/>
      <point x="402" y="979"/>
      <point x="350" y="1045"/>
      <point x="350" y="1131" type="curve" smooth="yes"/>
      <point x="350" y="1214"/>
      <point x="396" y="1271"/>
      <point x="490" y="1271" type="curve"/>
      <point x="509" y="1271"/>
      <point x="528" y="1270"/>
      <point x="547" y="1267" type="curve"/>
      <point x="541" y="1301" type="line"/>
      <point x="523" y="1304"/>
      <point x="506" y="1305"/>
      <point x="488" y="1305" type="curve"/>
      <point x="374" y="1305"/>
      <point x="312" y="1233"/>
      <point x="312" y="1131" type="curve" smooth="yes"/>
      <point x="312" y="1028"/>
      <point x="372" y="964"/>
      <point x="464" y="922" type="curve"/>
    </contour>
  </outline>
</glyph>
<glyph name="Tippi.gm" format="2">
  <unicode hex="0A70"/>
  <anchor x="400" y="1200" name="_top"/>
  <outline>
    <contour>
      <point x="226" y="1365" type="curve"/>
      <point x="257" y="1365" type="line"/>
      <point x="237" y="1402"/>
      <point x="225" y="1444"/>
      <point x="225" y="1479" type="curve" smooth="yes"/>
      <point x="225" y="1547"/>
      <point x="270" y="1593"/>
      <point x="339" y="1593" type="curve" smooth="yes"/>
      <point x="406" y="1593"/>
      <point x="449" y="1547"/>
      <point x="449" y="1479" type="curve" smooth="yes"/>
      <point x="449" y="1441"/>
      <point x="437" y="1398"/>
      <point x="417" y="1365" type="curve"/>
      <point x="448" y="1365" type="line"/>
      <point x="471" y="1398"/>
      <point x="485" y="1440"/>
      <point x="485" y="1482" type="curve" smooth="yes"/>
      <point x="485" y="1570"/>
      <point x="427" y="1628"/>
      <point x="339" y="1628" type="curve" smooth="yes"/>
      <point x="249" y="1628"/>
      <point x="189" y="1570"/>
      <point x="189" y="1482" type="curve" smooth="yes"/>
      <point x="189" y="1443"/>
      <point x="203" y="1400"/>
    </contour>
  </outline>
</glyph>
<glyph name="Ura.gm" format="2">
  <advance width="702"/>
  <unicode hex="0A73"/>
  <anchor x="1026" y="1384" name="top1"/>
  <outline>
    <contour>
      <point x="377" y="-18" type="curve" smooth="yes"/>
      <point x="518" y="-18"/>
      <point x="582" y="74"/>
      <point x="582" y="245" type="curve" smooth="yes"/>
      <point x="582" y="367" type="line" smooth="yes"/>
      <point x="582" y="533"/>
      <point x="518" y="646"/>
      <point x="336" y="646" type="curve"/>
      <point x="373" y="626" type="line"/>
      <point x="373" y="638" type="line"/>
      <point x="508" y="638"/>
      <point x="588" y="750"/>
      <point x="588" y="928" type="curve" smooth="yes"/>
      <point x="588" y="1196" type="line"/>
      <point x="551" y="1196" type="line"/>
      <point x="551" y="930" type="line" smooth="yes"/>
      <point x="551" y="766"/>
      <point x="486" y="656"/>
      <point x="325" y="656" type="curve" smooth="yes"/>
      <point x="156" y="656" type="line"/>
      <point x="156" y="622" type="line"/>
      <point x="331" y="622" type="line"/>
      <point x="485" y="622"/>
      <point x="545" y="532"/>
      <point x="545" y="369" type="curve" smooth="yes"/>
      <point x="545" y="245" type="line" smooth="yes"/>
      <point x="545" y="96"/>
      <point x="496" y="17"/>
      <point x="375" y="17" type="curve" smooth="yes"/>
      <point x="212" y="17"/>
      <point x="175" y="166"/>
      <point x="175" y="349" type="curve"/>
      <point x="175" y="1375" type="line" smooth="yes"/>
      <point x="175" y="1551"/>
      <point x="233" y="1639"/>
      <point x="363" y="1639" type="curve" smooth="yes"/>
      <point x="493" y="1639"/>
      <point x="551" y="1551"/>
      <point x="551" y="1375" type="curve" smooth="yes"/>
      <point x="551" y="1211" type="line"/>
      <point x="559" y="1211" type="line"/>
      <point x="562" y="1213" type="line"/>
      <point x="588" y="1225" type="line"/>
      <point x="588" y="1375" type="line" smooth="yes"/>
      <point x="588" y="1573"/>
      <point x="516" y="1674"/>
      <point x="363" y="1674" type="curve" smooth="yes"/>
      <point x="210" y="1674"/>
      <point x="138" y="1573"/>
      <point x="138" y="1375" type="curve"/>
      <point x="138" y="349" type="line"/>
      <point x="138" y="125"/>
      <point x="194" y="-18"/>
    </contour>
    <contour>
      <point x="35" y="1179" type="line"/>
      <point x="156" y="1179" type="line"/>
      <point x="159" y="1179" type="line"/>
      <point x="568" y="1179" type="line"/>
      <point x="576" y="1179" type="line"/>
      <point x="683" y="1179" type="line"/>
      <point x="683" y="1213" type="line"/>
      <point x="35" y="1213" type="line"/>
    </contour>
    <component base="_cap.shiro_left"/>
    <component base="_cap.shiro_right" xOffset="510"/>
  </outline>
</glyph>
<glyph name="EkOnkar.gm" format="2">
  <advance width="1205"/>
  <unicode hex="0A74"/>
  <outline>
    <contour>
      <point x="880" y="-18" type="curve" smooth="yes"/>
      <point x="1021" y="-18"/>
      <point x="1085" y="74"/>
      <point x="1085" y="245" type="curve" smooth="yes"/>
      <point x="1085" y="367" type="line" smooth="yes"/>
      <point x="1085" y="533"/>
      <point x="1021" y="646"/>
      <point x="839" y="646" type="curve"/>
      <point x="876" y="626" type="line"/>
      <point x="876" y="638" type="line"/>
      <point x="1011" y="638"/>
      <point x="1091" y="725"/>
      <point x="1091" y="868" type="curve" smooth="yes"/>
      <point x="1091" y="1199" type="line"/>
      <point x="1054" y="1199" type="line"/>
      <point x="1054" y="870" type="line" smooth="yes"/>
      <point x="1054" y="742"/>
      <point x="989" y="656"/>
      <point x="828" y="656" type="curve" smooth="yes"/>
      <point x="669" y="656" type="line"/>
      <point x="669" y="622" type="line"/>
      <point x="834" y="622" type="line" smooth="yes"/>
      <point x="988" y="622"/>
      <point x="1048" y="532"/>
      <point x="1048" y="369" type="curve" smooth="yes"/>
      <point x="1048" y="245" type="line" smooth="yes"/>
      <point x="1048" y="96"/>
      <point x="999" y="17"/>
      <point x="878" y="17" type="curve" smooth="yes"/>
      <point x="715" y="17"/>
      <point x="678" y="166"/>
      <point x="678" y="350" type="curve" smooth="yes"/>
      <point x="678" y="1288" type="line" smooth="yes"/>
      <point x="678" y="1519"/>
      <point x="773" y="1639"/>
      <point x="956" y="1639" type="curve" smooth="yes"/>
      <point x="993" y="1639"/>
      <point x="1027" y="1635"/>
      <point x="1055" y="1626" type="curve"/>
      <point x="1049" y="1662" type="line"/>
      <point x="1020" y="1670"/>
      <point x="988" y="1674"/>
      <point x="956" y="1674" type="curve" smooth="yes"/>
      <point x="750" y="1674"/>
      <point x="641" y="1541"/>
      <point x="641" y="1288" type="curve" smooth="yes"/>
      <point x="641" y="350" type="line" smooth="yes"/>
      <point x="641" y="125"/>
      <point x="697" y="-18"/>
    </contour>
    <contour>
      <point x="651" y="1179" type="line"/>
      <point x="655" y="1179" type="line"/>
      <point x="659" y="1179" type="line"/>
      <point x="1072" y="1179" type="line"/>
      <point x="1075" y="1179" type="line"/>
      <point x="1174" y="1179" type="line"/>
      <point x="1174" y="1213" type="line"/>
      <point x="661" y="1213" type="line"/>
    </contour>
    <contour>
      <point x="1055" y="1626" type="line"/>
      <point x="1055" y="1663" type="line" smooth="yes"/>
      <point x="1055" y="1824"/>
      <point x="1143" y="1944"/>
      <point x="1313" y="1944" type="curve" smooth="yes"/>
      <point x="1350" y="1944"/>
      <point x="1384" y="1940"/>
      <point x="1412" y="1931" type="curve"/>
      <point x="1406" y="1967" type="line"/>
      <point x="1377" y="1975"/>
      <point x="1345" y="1979"/>
      <point x="1313" y="1979" type="curve" smooth="yes"/>
      <point x="1120" y="1979"/>
      <point x="1018" y="1846"/>
      <point x="1018" y="1663" type="curve"/>
      <point x="1018" y="1650" type="line"/>
    </contour>
    <component base="one.gm"/>
    <component base="_cap.shiro_right" xOffset="1013"/>
  </outline>
</glyph>
<glyph name="Yakash.gm" format="2">
  <unicode hex="0A75"/>
  <anchor x="600" y="100" name="_bottom"/>
  <anchor x="700" y="280" name="bottom1"/>
  <outline>
    <contour>
      <point x="466" y="-358" type="curve" smooth="yes"/>
      <point x="560" y="-358"/>
      <point x="603" y="-295"/>
      <point x="603" y="-156" type="curve"/>
      <point x="566" y="-156" type="line"/>
      <point x="566" y="-272"/>
      <point x="535" y="-325"/>
      <point x="466" y="-325" type="curve" smooth="yes"/>
      <point x="391" y="-325"/>
      <point x="356" y="-272"/>
      <point x="356" y="-156" type="curve" smooth="yes"/>
      <point x="356" y="18" type="line"/>
      <point x="319" y="18" type="line"/>
      <point x="319" y="-156" type="line" smooth="yes"/>
      <point x="319" y="-295"/>
      <point x="365" y="-358"/>
    </contour>
  </outline>
</glyph>
<glyph name="Khanda.gm" format="2">
  <advance width="1706"/>
  <unicode hex="262C"/>
  <outline>
    <contour>
      <point x="769" y="0" type="line"/>
      <point x="935" y="0" type="line"/>
      <point x="891" y="188" type="line"/>
      <point x="1060" y="53" type="line"/>
      <point x="1167" y="145" type="line"/>
      <point x="929" y="243" type="line"/>
      <point x="1137" y="243"/>
      <point x="1522" y="407"/>
      <point x="1522" y="786" type="curve" smooth="yes"/>
      <point x="1522" y="988"/>
      <point x="1400" y="1130"/>
      <point x="1233" y="1144" type="curve"/>
      <point x="1286" y="1078"/>
      <point x="1328" y="984"/>
      <point x="1328" y="837" type="curve" smooth="yes"/>
      <point x="1328" y="473"/>
      <point x="1056" y="342"/>
      <point x="887" y="326" type="curve"/>
      <point x="887" y="385" type="line"/>
      <point x="997" y="453" type="line"/>
      <point x="951" y="578"/>
      <point x="931" y="708"/>
      <point x="931" y="837" type="curve" smooth="yes"/>
      <point x="931" y="973"/>
      <point x="955" y="1111"/>
      <point x="1005" y="1244" type="curve"/>
      <point x="859" y="1386" type="line"/>
      <point x="707" y="1244" type="line"/>
      <point x="758" y="1111"/>
      <point x="786" y="972"/>
      <point x="786" y="834" type="curve" smooth="yes"/>
      <point x="786" y="705"/>
      <point x="764" y="576"/>
      <point x="718" y="453" type="curve"/>
      <point x="815" y="390" type="line"/>
      <point x="815" y="326" type="line"/>
      <point x="646" y="342"/>
      <point x="377" y="473"/>
      <point x="377" y="837" type="curve" smooth="yes"/>
      <point x="377" y="984"/>
      <point x="420" y="1078"/>
      <point x="473" y="1144" type="curve"/>
      <point x="305" y="1130"/>
      <point x="184" y="988"/>
      <point x="184" y="786" type="curve" smooth="yes"/>
      <point x="184" y="407"/>
      <point x="565" y="243"/>
      <point x="773" y="243" type="curve"/>
      <point x="537" y="145" type="line"/>
      <point x="644" y="53" type="line"/>
      <point x="811" y="188" type="line"/>
    </contour>
    <contour>
      <point x="857" y="510" type="curve" smooth="yes"/>
      <point x="1084" y="510"/>
      <point x="1229" y="640"/>
      <point x="1229" y="852" type="curve" smooth="yes"/>
      <point x="1229" y="1064"/>
      <point x="1084" y="1192"/>
      <point x="857" y="1192" type="curve" smooth="yes"/>
      <point x="629" y="1192"/>
      <point x="484" y="1064"/>
      <point x="484" y="852" type="curve" smooth="yes"/>
      <point x="484" y="640"/>
      <point x="629" y="510"/>
    </contour>
    <contour>
      <point x="857" y="552" type="curve" smooth="yes"/>
      <point x="699" y="552"/>
      <point x="627" y="657"/>
      <point x="627" y="852" type="curve" smooth="yes"/>
      <point x="627" y="1045"/>
      <point x="699" y="1150"/>
      <point x="857" y="1150" type="curve" smooth="yes"/>
      <point x="1014" y="1150"/>
      <point x="1086" y="1045"/>
      <point x="1086" y="852" type="curve" smooth="yes"/>
      <point x="1086" y="657"/>
      <point x="1014" y="552"/>
    </contour>
  </outline>
</glyph>
<glyph name="Addak.gm.alt" format="2">
  <anchor x="400" y="1200" name="_top1"/>
  <outline>
    <contour>
      <point x="96" y="1341" type="curve" smooth="yes"/>
      <point x="173" y="1341"/>
      <point x="217" y="1394"/>
      <point x="217" y="1519" type="curve"/>
      <point x="186" y="1519" type="line"/>
      <point x="186" y="1426"/>
      <point x="156" y="1376"/>
      <point x="96" y="1376" type="curve" smooth="yes"/>
      <point x="34" y="1376"/>
      <point x="3" y="1426"/>
      <point x="3" y="1519" type="curve"/>
      <point x="-28" y="1519" type="line"/>
      <point x="-28" y="1394"/>
      <point x="15" y="1341"/>
    </contour>
  </outline>
</glyph>
<glyph name="AddakBindi.gm.alt" format="2">
  <anchor x="400" y="1200" name="_top1"/>
  <outline>
    <contour>
      <point x="96" y="1341" type="curve" smooth="yes"/>
      <point x="173" y="1341"/>
      <point x="217" y="1394"/>
      <point x="217" y="1519" type="curve"/>
      <point x="186" y="1519" type="line"/>
      <point x="186" y="1426"/>
      <point x="156" y="1376"/>
      <point x="96" y="1376" type="curve" smooth="yes"/>
      <point x="34" y="1376"/>
      <point x="3" y="1426"/>
      <point x="3" y="1519" type="curve"/>
      <point x="-28" y="1519" type="line"/>
      <point x="-28" y="1394"/>
      <point x="15" y="1341"/>
    </contour>
    <contour>
      <point x="96" y="1446" type="curve" smooth="yes"/>
      <point x="121" y="1446"/>
      <point x="132" y="1463"/>
      <point x="132" y="1498" type="curve" smooth="yes"/>
      <point x="132" y="1508" type="line" smooth="yes"/>
      <point x="132" y="1543"/>
      <point x="121" y="1559"/>
      <point x="96" y="1559" type="curve" smooth="yes"/>
      <point x="70" y="1559"/>
      <point x="60" y="1543"/>
      <point x="60" y="1508" type="curve" smooth="yes"/>
      <point x="60" y="1498" type="line" smooth="yes"/>
      <point x="60" y="1463"/>
      <point x="70" y="1446"/>
    </contour>
  </outline>
</glyph>
<glyph name="AddakDist.gm" format="2">
  <anchor x="320" y="1200" name="_top"/>
  <outline>
    <contour>
      <point x="341" y="1365" type="curve" smooth="yes"/>
      <point x="441" y="1365"/>
      <point x="504" y="1431"/>
      <point x="499" y="1586" type="curve"/>
      <point x="468" y="1586" type="line"/>
      <point x="473" y="1465"/>
      <point x="424" y="1400"/>
      <point x="341" y="1400" type="curve" smooth="yes"/>
      <point x="255" y="1400"/>
      <point x="205" y="1465"/>
      <point x="210" y="1586" type="curve"/>
      <point x="179" y="1586" type="line"/>
      <point x="174" y="1431"/>
      <point x="236" y="1365"/>
    </contour>
  </outline>
</glyph>
<glyph name="AddhaMa.gm" format="2">
  <advance width="698"/>
  <anchor x="680" y="100" name="bottom1"/>
  <anchor x="597" y="1200" name="top"/>
  <outline>
    <contour>
      <point x="28" y="521" type="line"/>
      <point x="521" y="521" type="line"/>
      <point x="521" y="554" type="line"/>
      <point x="28" y="554" type="line"/>
    </contour>
    <component base="_danda" xOffset="331"/>
  </outline>
</glyph>
<glyph name="AddhaTha.gm" format="2">
  <advance width="688"/>
  <anchor x="660" y="100" name="bottom1"/>
  <anchor x="587" y="1200" name="top"/>
  <outline>
    <contour>
      <point x="270" y="276" type="curve" smooth="yes"/>
      <point x="355" y="276"/>
      <point x="451" y="296"/>
      <point x="521" y="337" type="curve"/>
      <point x="521" y="372" type="line"/>
      <point x="451" y="331"/>
      <point x="355" y="311"/>
      <point x="270" y="311" type="curve" smooth="yes"/>
      <point x="184" y="311"/>
      <point x="88" y="333"/>
      <point x="18" y="374" type="curve"/>
      <point x="18" y="334" type="line"/>
      <point x="89" y="295"/>
      <point x="184" y="276"/>
    </contour>
    <contour>
      <point x="-2" y="1179" type="line"/>
      <point x="605" y="1179" type="line"/>
      <point x="605" y="1213" type="line"/>
      <point x="-2" y="1213" type="line"/>
    </contour>
    <component base="_danda" xOffset="321"/>
    <component base="_cap.shiro_left"/>
  </outline>
</glyph>
<glyph name="AddhaYa.gm" format="2">
  <advance width="782"/>
  <anchor x="710" y="100" name="bottom1"/>
  <anchor x="681" y="1200" name="top"/>
  <outline>
    <contour>
      <point x="209" y="220" type="curve" smooth="yes"/>
      <point x="266" y="220"/>
      <point x="334" y="231"/>
      <point x="363" y="248" type="curve"/>
      <point x="363" y="730" type="line"/>
      <point x="628" y="730" type="line"/>
      <point x="628" y="764" type="line"/>
      <point x="326" y="764" type="line"/>
      <point x="326" y="255" type="line"/>
      <point x="341" y="277" type="line"/>
      <point x="319" y="264"/>
      <point x="261" y="255"/>
      <point x="211" y="255" type="curve" smooth="yes"/>
      <point x="156" y="255"/>
      <point x="80" y="267"/>
      <point x="21" y="313" type="curve"/>
      <point x="21" y="270" type="line"/>
      <point x="72" y="236"/>
      <point x="144" y="220"/>
    </contour>
    <contour>
      <point x="2" y="1179" type="line"/>
      <point x="698" y="1179" type="line"/>
      <point x="698" y="1213" type="line"/>
      <point x="2" y="1213" type="line"/>
    </contour>
    <component base="_danda" xOffset="415"/>
    <component base="_cap.shiro_left" xOffset="-10"/>
  </outline>
</glyph>
<glyph name="Bindi.gm.alt" format="2">
  <anchor x="400" y="1200" name="_top1"/>
  <outline>
    <contour>
      <point x="16" y="1408" type="curve" smooth="yes"/>
      <point x="42" y="1408"/>
      <point x="53" y="1427"/>
      <point x="53" y="1467" type="curve" smooth="yes"/>
      <point x="53" y="1483" type="line" smooth="yes"/>
      <point x="53" y="1523"/>
      <point x="42" y="1541"/>
      <point x="16" y="1541" type="curve" smooth="yes"/>
      <point x="-10" y="1541"/>
      <point x="-21" y="1523"/>
      <point x="-21" y="1483" type="curve" smooth="yes"/>
      <point x="-21" y="1467" type="line" smooth="yes"/>
      <point x="-21" y="1427"/>
      <point x="-10" y="1408"/>
    </contour>
  </outline>
</glyph>
<glyph name="KaViramaRa.gm" format="2">
  <advance width="670"/>
  <anchor x="667" y="-150" name="bottom"/>
  <anchor x="780" y="-114" name="bottom1"/>
  <anchor x="617" y="1200" name="top"/>
  <outline>
    <contour>
      <point x="298" y="-204" type="line"/>
      <point x="530" y="-204" type="line"/>
      <point x="552" y="-190" type="line"/>
      <point x="566" y="-132"/>
      <point x="573" y="-54"/>
      <point x="573" y="25" type="curve"/>
      <point x="573" y="103" type="line"/>
      <point x="573" y="335"/>
      <point x="526" y="498"/>
      <point x="492" y="605" type="curve"/>
      <point x="482" y="638" type="line"/>
      <point x="462" y="757"/>
      <point x="424" y="940"/>
      <point x="276" y="940" type="curve" smooth="yes"/>
      <point x="152" y="940"/>
      <point x="88" y="848"/>
      <point x="88" y="671" type="curve" smooth="yes"/>
      <point x="88" y="521" type="line"/>
      <point x="88" y="345"/>
      <point x="152" y="253"/>
      <point x="276" y="253" type="curve" smooth="yes"/>
      <point x="419" y="253"/>
      <point x="455" y="436"/>
      <point x="482" y="561" type="curve"/>
      <point x="491" y="594" type="line"/>
      <point x="543" y="782"/>
      <point x="557" y="955"/>
      <point x="562" y="1041" type="curve" smooth="yes"/>
      <point x="571" y="1202" type="line"/>
      <point x="534" y="1202" type="line"/>
      <point x="525" y="1051" type="line" smooth="yes"/>
      <point x="514" y="872"/>
      <point x="504" y="803"/>
      <point x="466" y="627" type="curve"/>
      <point x="457" y="611" type="line"/>
      <point x="432" y="489"/>
      <point x="399" y="288"/>
      <point x="278" y="288" type="curve" smooth="yes"/>
      <point x="174" y="288"/>
      <point x="125" y="368"/>
      <point x="125" y="521" type="curve" smooth="yes"/>
      <point x="125" y="671" type="line" smooth="yes"/>
      <point x="125" y="825"/>
      <point x="174" y="905"/>
      <point x="278" y="905" type="curve" smooth="yes"/>
      <point x="400" y="905"/>
      <point x="438" y="720"/>
      <point x="457" y="596" type="curve"/>
      <point x="463" y="580" type="line"/>
      <point x="498" y="478"/>
      <point x="536" y="308"/>
      <point x="536" y="105" type="curve"/>
      <point x="536" y="25" type="line"/>
      <point x="537" y="-75"/>
      <point x="528" y="-145"/>
      <point x="523" y="-179" type="curve"/>
      <point x="534" y="-170" type="line"/>
      <point x="306" y="-170" type="line"/>
    </contour>
    <contour>
      <point x="781" y="-399" type="curve"/>
      <point x="776" y="-349" type="line"/>
      <point x="722" y="-294"/>
      <point x="625" y="-220"/>
      <point x="544" y="-174" type="curve"/>
      <point x="519" y="-201" type="line"/>
      <point x="613" y="-250"/>
      <point x="721" y="-333"/>
    </contour>
    <contour>
      <point x="20" y="1179" type="line"/>
      <point x="657" y="1179" type="line"/>
      <point x="657" y="1213" type="line"/>
      <point x="20" y="1213" type="line"/>
    </contour>
    <component base="_cap.shiro_left"/>
    <component base="_cap.shiro_right" xOffset="488"/>
  </outline>
</glyph>
<glyph name="LaHa.gm" format="2">
  <advance width="771"/>
  <anchor x="815" y="-349" name="bottom1"/>
  <anchor x="661" y="1200" name="top"/>
  <outline>
    <contour>
      <point x="389" y="486" type="curve"/>
      <point x="518" y="654"/>
      <point x="575" y="928"/>
      <point x="619" y="1194" type="curve"/>
      <point x="619" y="1198" type="line"/>
      <point x="582" y="1198" type="line"/>
      <point x="582" y="1194" type="line"/>
      <point x="541" y="955"/>
      <point x="500" y="722"/>
      <point x="389" y="546" type="curve"/>
      <point x="268" y="722"/>
      <point x="226" y="955"/>
      <point x="196" y="1194" type="curve"/>
      <point x="196" y="1198" type="line"/>
      <point x="159" y="1198" type="line"/>
      <point x="159" y="1194" type="line"/>
      <point x="192" y="928"/>
      <point x="250" y="654"/>
    </contour>
    <contour>
      <point x="192" y="0" type="curve"/>
      <point x="230" y="0" type="line"/>
      <point x="238" y="0" type="line"/>
      <point x="184" y="74"/>
      <point x="147" y="167"/>
      <point x="147" y="304" type="curve" smooth="yes"/>
      <point x="147" y="520" type="line" smooth="yes"/>
      <point x="147" y="670"/>
      <point x="193" y="743"/>
      <point x="254" y="797" type="curve"/>
      <point x="241" y="829" type="line"/>
      <point x="168" y="773"/>
      <point x="110" y="685"/>
      <point x="110" y="520" type="curve" smooth="yes"/>
      <point x="110" y="304" type="line" smooth="yes"/>
      <point x="110" y="155"/>
      <point x="153" y="66"/>
    </contour>
    <contour>
      <point x="579" y="0" type="line"/>
      <point x="618" y="66"/>
      <point x="661" y="155"/>
      <point x="661" y="302" type="curve" smooth="yes"/>
      <point x="661" y="520" type="line" smooth="yes"/>
      <point x="661" y="673"/>
      <point x="614" y="769"/>
      <point x="533" y="829" type="curve"/>
      <point x="520" y="797" type="line"/>
      <point x="583" y="743"/>
      <point x="624" y="666"/>
      <point x="624" y="520" type="curve" smooth="yes"/>
      <point x="624" y="304" type="line" smooth="yes"/>
      <point x="624" y="166"/>
      <point x="593" y="83"/>
      <point x="542" y="12" type="curve"/>
      <point x="542" y="0" type="line"/>
    </contour>
    <contour>
      <point x="23" y="1179" type="line"/>
      <point x="734" y="1179" type="line"/>
      <point x="734" y="1213" type="line"/>
      <point x="23" y="1213" type="line"/>
    </contour>
    <contour>
      <point x="463" y="-534" type="curve" smooth="yes"/>
      <point x="576" y="-534"/>
      <point x="579" y="-415"/>
      <point x="579" y="-370" type="curve" smooth="yes"/>
      <point x="579" y="0" type="line"/>
      <point x="542" y="0" type="line"/>
      <point x="542" y="-369" type="line" smooth="yes"/>
      <point x="542" y="-449"/>
      <point x="521" y="-499"/>
      <point x="461" y="-499" type="curve" smooth="yes"/>
      <point x="377" y="-499"/>
      <point x="338" y="-415"/>
      <point x="338" y="-290" type="curve" smooth="yes"/>
      <point x="338" y="-260" type="line" smooth="yes"/>
      <point x="338" y="-169"/>
      <point x="376" y="-121"/>
      <point x="448" y="-121" type="curve" smooth="yes"/>
      <point x="468" y="-121" type="line"/>
      <point x="468" y="-87" type="line"/>
      <point x="448" y="-87" type="line" smooth="yes"/>
      <point x="351" y="-87"/>
      <point x="301" y="-146"/>
      <point x="301" y="-260" type="curve" smooth="yes"/>
      <point x="301" y="-290" type="line" smooth="yes"/>
      <point x="301" y="-438"/>
      <point x="353" y="-534"/>
    </contour>
    <component base="_cap.shiro_left"/>
    <component base="_cap.shiro_right" xOffset="579"/>
  </outline>
</glyph>
<glyph name="MatraAi.gm.alt" format="2">
  <anchor x="400" y="1200" name="_top"/>
  <anchor x="749" y="1401" name="top1"/>
  <outline>
    <contour>
      <point x="322" y="1206" type="line"/>
      <point x="356" y="1206" type="line"/>
      <point x="354" y="1304" type="line" smooth="yes"/>
      <point x="347" y="1631"/>
      <point x="277" y="1719"/>
      <point x="116" y="1719" type="curve" smooth="yes"/>
      <point x="86" y="1719"/>
      <point x="61" y="1714"/>
      <point x="26" y="1705" type="curve"/>
      <point x="22" y="1673" type="line"/>
      <point x="60" y="1682"/>
      <point x="92" y="1686"/>
      <point x="121" y="1686" type="curve" smooth="yes"/>
      <point x="269" y="1686"/>
      <point x="313" y="1600"/>
      <point x="329" y="1339" type="curve"/>
      <point x="318" y="1337" type="line"/>
    </contour>
    <contour>
      <point x="319" y="1206" type="line"/>
      <point x="339" y="1206" type="line"/>
      <point x="339" y="1235" type="line" smooth="yes"/>
      <point x="339" y="1381"/>
      <point x="275" y="1464"/>
      <point x="141" y="1464" type="curve" smooth="yes"/>
      <point x="118" y="1464"/>
      <point x="83" y="1459"/>
      <point x="57" y="1454" type="curve"/>
      <point x="53" y="1421" type="line"/>
      <point x="82" y="1426"/>
      <point x="112" y="1431"/>
      <point x="147" y="1431" type="curve" smooth="yes"/>
      <point x="261" y="1431"/>
      <point x="319" y="1363"/>
      <point x="319" y="1217" type="curve" smooth="yes"/>
    </contour>
  </outline>
</glyph>
<glyph name="MatraAu.gm.alt" format="2">
  <anchor x="400" y="1200" name="_top"/>
  <anchor x="843" y="1437" name="top1"/>
  <outline>
    <contour>
      <point x="230" y="1345" type="curve"/>
      <point x="260" y="1345" type="line"/>
      <point x="242" y="1380"/>
      <point x="228" y="1416"/>
      <point x="228" y="1464" type="curve"/>
      <point x="228" y="1527"/>
      <point x="271" y="1583"/>
      <point x="341" y="1583" type="curve" smooth="yes"/>
      <point x="412" y="1583"/>
      <point x="450" y="1530"/>
      <point x="450" y="1464" type="curve" smooth="yes"/>
      <point x="450" y="1416"/>
      <point x="438" y="1380"/>
      <point x="418" y="1345" type="curve"/>
      <point x="448" y="1345" type="line"/>
      <point x="470" y="1380"/>
      <point x="482" y="1418"/>
      <point x="482" y="1467" type="curve" smooth="yes"/>
      <point x="482" y="1553"/>
      <point x="435" y="1618"/>
      <point x="341" y="1618" type="curve" smooth="yes"/>
      <point x="320" y="1618"/>
      <point x="300" y="1617"/>
      <point x="279" y="1607" type="curve"/>
      <point x="274" y="1602" type="line"/>
      <point x="230" y="1579"/>
      <point x="196" y="1531"/>
      <point x="196" y="1467" type="curve"/>
      <point x="196" y="1418"/>
      <point x="210" y="1380"/>
    </contour>
    <contour>
      <point x="188" y="1582" type="curve" smooth="yes"/>
      <point x="224" y="1582"/>
      <point x="238" y="1587"/>
      <point x="257" y="1595" type="curve"/>
      <point x="261" y="1592" type="line"/>
      <point x="341" y="1585" type="line"/>
      <point x="341" y="1618" type="line"/>
      <point x="199" y="1615" type="line" smooth="yes"/>
      <point x="117" y="1613"/>
      <point x="79" y="1647"/>
      <point x="79" y="1765" type="curve"/>
      <point x="49" y="1765" type="line"/>
      <point x="49" y="1752" type="line" smooth="yes"/>
      <point x="49" y="1622"/>
      <point x="101" y="1582"/>
    </contour>
  </outline>
</glyph>
<glyph name="MatraEe.gm.alt" format="2">
  <anchor x="400" y="1200" name="_top"/>
  <anchor x="729" y="1353" name="top1"/>
  <outline>
    <contour>
      <point x="321" y="1200" type="line"/>
      <point x="358" y="1200" type="line"/>
      <point x="298" y="1582"/>
      <point x="246" y="1666"/>
      <point x="91" y="1666" type="curve" smooth="yes"/>
      <point x="71" y="1666"/>
      <point x="56" y="1664"/>
      <point x="29" y="1660" type="curve"/>
      <point x="27" y="1627" type="line"/>
      <point x="50" y="1631"/>
      <point x="71" y="1633"/>
      <point x="91" y="1633" type="curve" smooth="yes"/>
      <point x="228" y="1633"/>
      <point x="265" y="1537"/>
      <point x="318" y="1218" type="curve" smooth="yes"/>
    </contour>
  </outline>
</glyph>
<glyph name="MatraIiBindi.gm" format="2">
  <advance width="325"/>
  <anchor x="638" y="1384" name="top1"/>
  <outline>
    <contour>
      <point x="275" y="1561" type="curve" smooth="yes"/>
      <point x="301" y="1561"/>
      <point x="312" y="1580"/>
      <point x="312" y="1620" type="curve" smooth="yes"/>
      <point x="312" y="1636" type="line" smooth="yes"/>
      <point x="312" y="1676"/>
      <point x="301" y="1694"/>
      <point x="275" y="1694" type="curve" smooth="yes"/>
      <point x="249" y="1694"/>
      <point x="238" y="1676"/>
      <point x="238" y="1636" type="curve" smooth="yes"/>
      <point x="238" y="1620" type="line" smooth="yes"/>
      <point x="238" y="1580"/>
      <point x="249" y="1561"/>
    </contour>
    <component base="MatraIi.gm"/>
  </outline>
</glyph>
<glyph name="MatraOo.gm.alt" format="2">
  <anchor x="400" y="1200" name="_top"/>
  <anchor x="704" y="1372" name="top1"/>
  <outline>
    <contour>
      <point x="319" y="1206" type="curve"/>
      <point x="355" y="1206" type="line"/>
      <point x="355" y="1210"/>
      <point x="355" y="1213"/>
      <point x="355" y="1218" type="curve" smooth="yes"/>
      <point x="355" y="1391"/>
      <point x="319" y="1458"/>
      <point x="186" y="1480" type="curve" smooth="yes"/>
      <point x="162" y="1484" type="line" smooth="yes"/>
      <point x="78" y="1498"/>
      <point x="34" y="1544"/>
      <point x="34" y="1694" type="curve"/>
      <point x="5" y="1694" type="line"/>
      <point x="5" y="1666" type="line" smooth="yes"/>
      <point x="5" y="1519"/>
      <point x="59" y="1467"/>
      <point x="162" y="1450" type="curve" smooth="yes"/>
      <point x="186" y="1446" type="line" smooth="yes"/>
      <point x="297" y="1428"/>
      <point x="319" y="1367"/>
    </contour>
  </outline>
</glyph>
<glyph name="MatraU.gm.alt" format="2">
  <anchor x="600" y="100" name="_bottom1"/>
  <outline>
    <contour>
      <point x="224" y="-720" type="curve" smooth="yes"/>
      <point x="284" y="-720"/>
      <point x="333" y="-704"/>
      <point x="362" y="-686" type="curve"/>
      <point x="363" y="-655" type="line"/>
      <point x="334" y="-673"/>
      <point x="285" y="-690"/>
      <point x="226" y="-690" type="curve" smooth="yes"/>
      <point x="161" y="-690"/>
      <point x="111" y="-673"/>
      <point x="81" y="-655" type="curve"/>
      <point x="82" y="-686" type="line"/>
      <point x="113" y="-704"/>
      <point x="163" y="-720"/>
    </contour>
  </outline>
</glyph>
<glyph name="MatraUu.gm.alt" format="2">
  <anchor x="600" y="100" name="_bottom1"/>
  <outline>
    <contour>
      <point x="224" y="-697" type="curve" smooth="yes"/>
      <point x="284" y="-697"/>
      <point x="333" y="-681"/>
      <point x="362" y="-663" type="curve"/>
      <point x="363" y="-632" type="line"/>
      <point x="334" y="-650"/>
      <point x="285" y="-667"/>
      <point x="226" y="-667" type="curve" smooth="yes"/>
      <point x="161" y="-667"/>
      <point x="111" y="-650"/>
      <point x="81" y="-632" type="curve"/>
      <point x="82" y="-663" type="line"/>
      <point x="113" y="-681"/>
      <point x="163" y="-697"/>
    </contour>
    <contour>
      <point x="224" y="-840" type="curve" smooth="yes"/>
      <point x="284" y="-840"/>
      <point x="333" y="-823"/>
      <point x="362" y="-805" type="curve"/>
      <point x="363" y="-774" type="line"/>
      <point x="334" y="-792"/>
      <point x="285" y="-809"/>
      <point x="226" y="-809" type="curve" smooth="yes"/>
      <point x="161" y="-809"/>
      <point x="111" y="-792"/>
      <point x="81" y="-774" type="curve"/>
      <point x="82" y="-805" type="line"/>
      <point x="113" y="-823"/>
      <point x="163" y="-840"/>
    </contour>
  </outline>
</glyph>
<glyph name="NaHa.gm" format="2">
  <advance width="683"/>
  <anchor x="723" y="-349" name="bottom1"/>
  <anchor x="402" y="1200" name="top"/>
  <outline>
    <contour>
      <point x="190" y="0" type="curve"/>
      <point x="238" y="0" type="line"/>
      <point x="230" y="9" type="line"/>
      <point x="151" y="99"/>
      <point x="143" y="168"/>
      <point x="143" y="292" type="curve" smooth="yes"/>
      <point x="143" y="529" type="line" smooth="yes"/>
      <point x="143" y="707"/>
      <point x="221" y="776"/>
      <point x="339" y="823" type="curve"/>
      <point x="460" y="777"/>
      <point x="537" y="707"/>
      <point x="537" y="529" type="curve" smooth="yes"/>
      <point x="537" y="292" type="line" smooth="yes"/>
      <point x="537" y="155"/>
      <point x="522" y="92"/>
      <point x="450" y="8" type="curve"/>
      <point x="450" y="0" type="line"/>
      <point x="487" y="0" type="line"/>
      <point x="555" y="73"/>
      <point x="574" y="144"/>
      <point x="574" y="296" type="curve" smooth="yes"/>
      <point x="574" y="527" type="line" smooth="yes"/>
      <point x="574" y="730"/>
      <point x="477" y="811"/>
      <point x="339" y="860" type="curve"/>
      <point x="202" y="812"/>
      <point x="106" y="730"/>
      <point x="106" y="527" type="curve" smooth="yes"/>
      <point x="106" y="296" type="line" smooth="yes"/>
      <point x="106" y="144"/>
      <point x="127" y="77"/>
    </contour>
    <contour>
      <point x="321" y="839" type="line"/>
      <point x="358" y="839" type="line"/>
      <point x="358" y="1196" type="line"/>
      <point x="321" y="1196" type="line"/>
    </contour>
    <contour>
      <point x="18" y="1179" type="line"/>
      <point x="648" y="1179" type="line"/>
      <point x="648" y="1213" type="line"/>
      <point x="18" y="1213" type="line"/>
    </contour>
    <contour>
      <point x="371" y="-534" type="curve" smooth="yes"/>
      <point x="484" y="-534"/>
      <point x="487" y="-415"/>
      <point x="487" y="-370" type="curve" smooth="yes"/>
      <point x="487" y="0" type="line"/>
      <point x="450" y="0" type="line"/>
      <point x="450" y="-369" type="line" smooth="yes"/>
      <point x="450" y="-449"/>
      <point x="429" y="-499"/>
      <point x="369" y="-499" type="curve" smooth="yes"/>
      <point x="285" y="-499"/>
      <point x="246" y="-415"/>
      <point x="246" y="-290" type="curve" smooth="yes"/>
      <point x="246" y="-260" type="line" smooth="yes"/>
      <point x="246" y="-169"/>
      <point x="284" y="-121"/>
      <point x="356" y="-121" type="curve" smooth="yes"/>
      <point x="376" y="-121" type="line"/>
      <point x="376" y="-87" type="line"/>
      <point x="356" y="-87" type="line" smooth="yes"/>
      <point x="259" y="-87"/>
      <point x="209" y="-146"/>
      <point x="209" y="-260" type="curve" smooth="yes"/>
      <point x="209" y="-290" type="line" smooth="yes"/>
      <point x="209" y="-438"/>
      <point x="261" y="-534"/>
    </contour>
    <component base="_cap.shiro_left"/>
    <component base="_cap.shiro_right" xOffset="491"/>
  </outline>
</glyph>
<glyph name="NaViramaRa.gm" format="2">
  <advance width="683"/>
  <anchor x="581" y="-150" name="bottom"/>
  <anchor x="694" y="-114" name="bottom1"/>
  <anchor x="402" y="1200" name="top"/>
  <outline>
    <contour>
      <point x="190" y="0" type="curve"/>
      <point x="238" y="0" type="line"/>
      <point x="230" y="9" type="line"/>
      <point x="151" y="99"/>
      <point x="143" y="168"/>
      <point x="143" y="292" type="curve" smooth="yes"/>
      <point x="143" y="529" type="line" smooth="yes"/>
      <point x="143" y="707"/>
      <point x="221" y="776"/>
      <point x="339" y="823" type="curve"/>
      <point x="460" y="777"/>
      <point x="537" y="707"/>
      <point x="537" y="529" type="curve" smooth="yes"/>
      <point x="537" y="292" type="line" smooth="yes"/>
      <point x="537" y="155"/>
      <point x="522" y="95"/>
      <point x="450" y="11" type="curve"/>
      <point x="450" y="0" type="line"/>
      <point x="487" y="1" type="line"/>
      <point x="550" y="78"/>
      <point x="574" y="144"/>
      <point x="574" y="296" type="curve" smooth="yes"/>
      <point x="574" y="527" type="line" smooth="yes"/>
      <point x="574" y="730"/>
      <point x="477" y="811"/>
      <point x="339" y="860" type="curve"/>
      <point x="202" y="812"/>
      <point x="106" y="730"/>
      <point x="106" y="527" type="curve" smooth="yes"/>
      <point x="106" y="296" type="line" smooth="yes"/>
      <point x="106" y="144"/>
      <point x="127" y="77"/>
    </contour>
    <contour>
      <point x="321" y="839" type="line"/>
      <point x="358" y="839" type="line"/>
      <point x="358" y="1196" type="line"/>
      <point x="321" y="1196" type="line"/>
    </contour>
    <contour>
      <point x="18" y="1179" type="line"/>
      <point x="648" y="1179" type="line"/>
      <point x="648" y="1213" type="line"/>
      <point x="18" y="1213" type="line"/>
    </contour>
    <contour>
      <point x="695" y="-399" type="curve"/>
      <point x="690" y="-349" type="line"/>
      <point x="637" y="-294"/>
      <point x="539" y="-220"/>
      <point x="458" y="-174" type="curve"/>
      <point x="433" y="-201" type="line"/>
      <point x="528" y="-250"/>
      <point x="636" y="-333"/>
    </contour>
    <contour>
      <point x="212" y="-204" type="line"/>
      <point x="444" y="-204" type="line"/>
      <point x="466" y="-190" type="line"/>
      <point x="479" y="-158"/>
      <point x="487" y="-96"/>
      <point x="487" y="-24" type="curve" smooth="yes"/>
      <point x="487" y="1" type="line"/>
      <point x="450" y="0" type="line"/>
      <point x="450" y="-25" type="line" smooth="yes"/>
      <point x="450" y="-91"/>
      <point x="445" y="-148"/>
      <point x="437" y="-179" type="curve"/>
      <point x="448" y="-170" type="line"/>
      <point x="220" y="-170" type="line"/>
    </contour>
    <component base="_cap.shiro_left"/>
    <component base="_cap.shiro_right" xOffset="491"/>
  </outline>
</glyph>
<glyph name="Nukta.gm.001" format="2">
  <outline>
    <contour>
      <point x="-897" y="-194" type="curve" smooth="yes"/>
      <point x="-871" y="-194"/>
      <point x="-860" y="-175"/>
      <point x="-860" y="-135" type="curve" smooth="yes"/>
      <point x="-860" y="-119" type="line" smooth="yes"/>
      <point x="-860" y="-79"/>
      <point x="-871" y="-61"/>
      <point x="-897" y="-61" type="curve" smooth="yes"/>
      <point x="-923" y="-61"/>
      <point x="-934" y="-79"/>
      <point x="-934" y="-119" type="curve" smooth="yes"/>
      <point x="-934" y="-135" type="line" smooth="yes"/>
      <point x="-934" y="-175"/>
      <point x="-923" y="-194"/>
    </contour>
  </outline>
</glyph>
<glyph name="PairinHa.gm" format="2">
  <anchor x="600" y="100" name="_bottom"/>
  <anchor x="600" y="140" name="bottom1"/>
  <outline>
    <contour>
      <point x="240" y="-514" type="curve" smooth="yes"/>
      <point x="353" y="-514"/>
      <point x="356" y="-395"/>
      <point x="356" y="-350" type="curve" smooth="yes"/>
      <point x="356" y="18" type="line"/>
      <point x="319" y="18" type="line"/>
      <point x="319" y="-349" type="line" smooth="yes"/>
      <point x="319" y="-429"/>
      <point x="298" y="-479"/>
      <point x="238" y="-479" type="curve" smooth="yes"/>
      <point x="154" y="-479"/>
      <point x="115" y="-395"/>
      <point x="115" y="-270" type="curve" smooth="yes"/>
      <point x="115" y="-240" type="line" smooth="yes"/>
      <point x="115" y="-149"/>
      <point x="153" y="-101"/>
      <point x="225" y="-101" type="curve" smooth="yes"/>
      <point x="245" y="-101" type="line"/>
      <point x="245" y="-67" type="line"/>
      <point x="225" y="-67" type="line" smooth="yes"/>
      <point x="128" y="-67"/>
      <point x="78" y="-126"/>
      <point x="78" y="-240" type="curve" smooth="yes"/>
      <point x="78" y="-270" type="line" smooth="yes"/>
      <point x="78" y="-418"/>
      <point x="130" y="-514"/>
    </contour>
  </outline>
</glyph>
<glyph name="PairinRa.gm" format="2">
  <anchor x="600" y="100" name="_bottom"/>
  <anchor x="600" y="400" name="bottom1"/>
  <outline>
    <contour>
      <point x="564" y="-399" type="curve"/>
      <point x="559" y="-349" type="line"/>
      <point x="506" y="-294"/>
      <point x="408" y="-220"/>
      <point x="327" y="-174" type="curve"/>
      <point x="302" y="-201" type="line"/>
      <point x="397" y="-250"/>
      <point x="505" y="-333"/>
    </contour>
    <contour>
      <point x="81" y="-204" type="line"/>
      <point x="313" y="-204" type="line"/>
      <point x="335" y="-190" type="line"/>
      <point x="348" y="-158"/>
      <point x="356" y="-97"/>
      <point x="356" y="-25" type="curve" smooth="yes"/>
      <point x="356" y="10" type="line"/>
      <point x="319" y="10" type="line"/>
      <point x="319" y="-25" type="line" smooth="yes"/>
      <point x="319" y="-91"/>
      <point x="314" y="-148"/>
      <point x="306" y="-179" type="curve"/>
      <point x="317" y="-170" type="line"/>
      <point x="89" y="-170" type="line"/>
    </contour>
  </outline>
</glyph>
<glyph name="PairinVa.gm" format="2">
  <anchor x="600" y="100" name="_bottom"/>
  <anchor x="600" y="140" name="bottom1"/>
  <outline>
    <contour>
      <point x="227" y="-297" type="curve"/>
      <point x="356" y="-297" type="line"/>
      <point x="356" y="-263" type="line"/>
      <point x="227" y="-263" type="line" smooth="yes"/>
      <point x="170" y="-263"/>
      <point x="124" y="-240"/>
      <point x="124" y="-170" type="curve" smooth="yes"/>
      <point x="124" y="-99"/>
      <point x="162" y="-78"/>
      <point x="234" y="-78" type="curve" smooth="yes"/>
      <point x="356" y="-78" type="line"/>
      <point x="356" y="28" type="line"/>
      <point x="319" y="28" type="line"/>
      <point x="319" y="-44" type="line"/>
      <point x="233" y="-44" type="line" smooth="yes"/>
      <point x="162" y="-44"/>
      <point x="87" y="-68"/>
      <point x="87" y="-170" type="curve" smooth="yes"/>
      <point x="87" y="-260"/>
      <point x="151" y="-297"/>
    </contour>
    <contour>
      <point x="330" y="-514" type="curve" smooth="yes"/>
      <point x="346" y="-514"/>
      <point x="357" y="-512"/>
      <point x="368" y="-508" type="curve"/>
      <point x="374" y="-476" type="line"/>
      <point x="358" y="-481"/>
      <point x="349" y="-482"/>
      <point x="332" y="-482" type="curve" smooth="yes"/>
      <point x="271" y="-482"/>
      <point x="237" y="-436"/>
      <point x="214" y="-272" type="curve"/>
      <point x="178" y="-269" type="line"/>
      <point x="205" y="-451"/>
      <point x="246" y="-514"/>
    </contour>
  </outline>
</glyph>
<glyph name="Rha.gm" format="2">
  <advance width="587"/>
  <anchor x="510" y="-135" name="bottom"/>
  <anchor x="661" y="-96" name="bottom1"/>
  <anchor x="492" y="1200" name="top"/>
  <outline>
    <contour>
      <point x="18" y="1179" type="line"/>
      <point x="567" y="1179" type="line"/>
      <point x="567" y="1213" type="line"/>
      <point x="18" y="1213" type="line"/>
    </contour>
    <contour>
      <point x="167" y="-162" type="line"/>
      <point x="207" y="-162" type="line"/>
      <point x="85" y="147" type="line"/>
      <point x="51" y="147" type="line"/>
    </contour>
    <contour>
      <point x="408" y="-278" type="curve" smooth="yes"/>
      <point x="487" y="-278"/>
      <point x="527" y="-232"/>
      <point x="527" y="-174" type="curve" smooth="yes"/>
      <point x="527" y="-136"/>
      <point x="507" y="-96"/>
      <point x="491" y="-65" type="curve" smooth="yes"/>
      <point x="382" y="144" type="line"/>
      <point x="350" y="131" type="line"/>
      <point x="458" y="-78" type="line" smooth="yes"/>
      <point x="473" y="-108"/>
      <point x="490" y="-142"/>
      <point x="490" y="-174" type="curve" smooth="yes"/>
      <point x="490" y="-218"/>
      <point x="463" y="-246"/>
      <point x="409" y="-246" type="curve" smooth="yes"/>
      <point x="346" y="-246"/>
      <point x="311" y="-213"/>
      <point x="311" y="-166" type="curve" smooth="yes"/>
      <point x="311" y="-133"/>
      <point x="337" y="-108"/>
      <point x="380" y="-100" type="curve"/>
      <point x="362" y="-69" type="line"/>
      <point x="307" y="-82"/>
      <point x="274" y="-117"/>
      <point x="274" y="-166" type="curve" smooth="yes"/>
      <point x="274" y="-236"/>
      <point x="333" y="-278"/>
    </contour>
    <contour>
      <point x="236" y="74" type="curve" smooth="yes"/>
      <point x="373" y="74"/>
      <point x="448" y="156"/>
      <point x="448" y="329" type="curve" smooth="yes"/>
      <point x="448" y="438" type="line" smooth="yes"/>
      <point x="448" y="603"/>
      <point x="406" y="705"/>
      <point x="262" y="705" type="curve"/>
      <point x="288" y="684" type="line"/>
      <point x="288" y="695" type="line"/>
      <point x="387" y="695"/>
      <point x="434" y="796"/>
      <point x="434" y="926" type="curve" smooth="yes"/>
      <point x="434" y="1192" type="line"/>
      <point x="397" y="1192" type="line"/>
      <point x="397" y="926" type="line" smooth="yes"/>
      <point x="397" y="816"/>
      <point x="376" y="715"/>
      <point x="253" y="715" type="curve" smooth="yes"/>
      <point x="86" y="715" type="line"/>
      <point x="86" y="681" type="line"/>
      <point x="256" y="681" type="line" smooth="yes"/>
      <point x="386" y="681"/>
      <point x="411" y="575"/>
      <point x="411" y="436" type="curve" smooth="yes"/>
      <point x="411" y="331" type="line" smooth="yes"/>
      <point x="411" y="177"/>
      <point x="353" y="109"/>
      <point x="236" y="109" type="curve" smooth="yes"/>
      <point x="143" y="109"/>
      <point x="82" y="151"/>
      <point x="45" y="199" type="curve"/>
      <point x="51" y="147" type="line"/>
      <point x="80" y="109"/>
      <point x="139" y="74"/>
    </contour>
    <component base="_cap.shiro_left"/>
    <component base="_cap.shiro_right" xOffset="394"/>
  </outline>
</glyph>
<glyph name="TippiDist.gm" format="2">
  <anchor x="320" y="1200" name="_top"/>
  <outline>
    <contour>
      <point x="219" y="1365" type="curve"/>
      <point x="250" y="1365" type="line"/>
      <point x="230" y="1402"/>
      <point x="218" y="1444"/>
      <point x="218" y="1479" type="curve"/>
      <point x="218" y="1547"/>
      <point x="263" y="1593"/>
      <point x="332" y="1593" type="curve" smooth="yes"/>
      <point x="399" y="1593"/>
      <point x="442" y="1547"/>
      <point x="442" y="1479" type="curve" smooth="yes"/>
      <point x="442" y="1441"/>
      <point x="430" y="1398"/>
      <point x="410" y="1365" type="curve"/>
      <point x="441" y="1365" type="line"/>
      <point x="464" y="1398"/>
      <point x="478" y="1440"/>
      <point x="478" y="1482" type="curve" smooth="yes"/>
      <point x="478" y="1570"/>
      <point x="420" y="1628"/>
      <point x="332" y="1628" type="curve" smooth="yes"/>
      <point x="242" y="1628"/>
      <point x="182" y="1570"/>
      <point x="182" y="1482" type="curve"/>
      <point x="182" y="1443"/>
      <point x="196" y="1400"/>
    </contour>
  </outline>
</glyph>
<glyph name="Virama.gm.alt" format="2">
  <anchor x="600" y="100" name="_bottom1"/>
  <outline>
    <contour>
      <point x="340" y="-850" type="line"/>
      <point x="379" y="-850" type="line"/>
      <point x="221" y="-647" type="line"/>
      <point x="177" y="-647" type="line"/>
    </contour>
  </outline>
</glyph>
<glyph name="_EEmatra" format="2">
  <advance width="325"/>
  <anchor x="638" y="1384" name="top1"/>
  <outline>
    <contour>
      <point x="144" y="1207" type="line"/>
      <point x="181" y="1207" type="line"/>
      <point x="181" y="1446" type="line"/>
      <point x="181" y="1595"/>
      <point x="120" y="1674"/>
      <point x="3" y="1674" type="curve" smooth="yes"/>
      <point x="-114" y="1674"/>
      <point x="-173" y="1595"/>
      <point x="-173" y="1446" type="curve"/>
      <point x="-173" y="1316" type="line"/>
      <point x="-136" y="1316" type="line"/>
      <point x="-136" y="1446" type="line"/>
      <point x="-136" y="1573"/>
      <point x="-95" y="1639"/>
      <point x="3" y="1639" type="curve" smooth="yes"/>
      <point x="101" y="1639"/>
      <point x="144" y="1573"/>
      <point x="144" y="1446" type="curve"/>
    </contour>
    <contour>
      <point x="144" y="0" type="line"/>
      <point x="181" y="0" type="line"/>
      <point x="181" y="1192" type="line"/>
      <point x="144" y="1192" type="line"/>
    </contour>
    <contour>
      <point x="-26" y="1179" type="line"/>
      <point x="337" y="1179" type="line"/>
      <point x="342" y="1213" type="line"/>
      <point x="-21" y="1213" type="line"/>
    </contour>
  </outline>
</glyph>
<glyph name="_Ematra" format="2">
  <advance width="325"/>
  <outline>
    <contour>
      <point x="144" y="1207" type="line"/>
      <point x="181" y="1207" type="line"/>
      <point x="181" y="1446" type="line"/>
      <point x="181" y="1573"/>
      <point x="224" y="1639"/>
      <point x="322" y="1639" type="curve" smooth="yes"/>
      <point x="420" y="1639"/>
      <point x="461" y="1573"/>
      <point x="461" y="1446" type="curve"/>
      <point x="461" y="1316" type="line"/>
      <point x="498" y="1316" type="line"/>
      <point x="498" y="1446" type="line"/>
      <point x="498" y="1595"/>
      <point x="439" y="1674"/>
      <point x="322" y="1674" type="curve" smooth="yes"/>
      <point x="205" y="1674"/>
      <point x="144" y="1595"/>
      <point x="144" y="1446" type="curve"/>
    </contour>
    <contour>
      <point x="144" y="0" type="line"/>
      <point x="181" y="0" type="line"/>
      <point x="181" y="1189" type="line"/>
      <point x="144" y="1189" type="line"/>
    </contour>
    <contour>
      <point x="-17" y="1179" type="line"/>
      <point x="321" y="1179" type="line"/>
      <point x="326" y="1213" type="line"/>
      <point x="-12" y="1213" type="line"/>
    </contour>
  </outline>
</glyph>
<glyph name="_cap.shiro_right" format="2">
  <advance width="193"/>
  <outline>
    <contour>
      <point x="147" y="1179" type="line"/>
      <point x="205" y="1179" type="line"/>
      <point x="210" y="1213" type="line"/>
      <point x="147" y="1213" type="line"/>
    </contour>
  </outline>
</glyph>
<glyph name="_danda" format="2">
  <advance width="368"/>
  <outline>
    <contour>
      <point x="186" y="0" type="line"/>
      <point x="223" y="0" type="line"/>
      <point x="223" y="1179" type="line"/>
      <point x="341" y="1179" type="line"/>
      <point x="341" y="1213" type="line"/>
      <point x="186" y="1213" type="line"/>
    </contour>
    <component base="_cap.shiro_right" xOffset="175"/>
  </outline>
</glyph>
<glyph name="_danda001" format="2">
  <advance width="325"/>
  <outline>
    <contour>
      <point x="144" y="460" type="line"/>
      <point x="181" y="460" type="line"/>
      <point x="181" y="1203" type="line"/>
      <point x="144" y="1203" type="line"/>
    </contour>
    <contour>
      <point x="-17" y="1179" type="line"/>
      <point x="337" y="1179" type="line"/>
      <point x="342" y="1213" type="line"/>
      <point x="-12" y="1213" type="line"/>
    </contour>
  </outline>
</glyph>
<glyph name="_part.shiro" format="2">
  <advance width="589"/>
  <outline>
    <contour>
      <point x="-18" y="1179" type="line"/>
      <point x="598" y="1179" type="line"/>
      <point x="603" y="1213" type="line"/>
      <point x="-13" y="1213" type="line"/>
    </contour>
  </outline>
</glyph>
